<?xml version="1.0" encoding="utf-8"?>
<!-- Generator: Adobe Illustrator 17.1.0, SVG Export Plug-In . SVG Version: 6.00 Build 0)  -->
<!DOCTYPE svg PUBLIC "-//W3C//DTD SVG 1.1//EN" "http://www.w3.org/Graphics/SVG/1.1/DTD/svg11.dtd">
<svg version="1.1" id="Capa_1" xmlns="http://www.w3.org/2000/svg" xmlns:xlink="http://www.w3.org/1999/xlink" x="0px" y="0px"
	 viewBox="0 0 379 265" enable-background="new 0 0 379 265" xml:space="preserve">
<g>
	<line fill="none" stroke="#030405" stroke-miterlimit="10" stroke-dasharray="12" x1="26.2" y1="246" x2="243" y2="29.2"/>
	<line fill="none" stroke="#030405" stroke-miterlimit="10" stroke-dasharray="12" x1="26.2" y1="29.2" x2="243" y2="246"/>
	<g>
		<g>
			
				<linearGradient id="SVGID_1_" gradientUnits="userSpaceOnUse" x1="1215.1694" y1="-384.1722" x2="1226.3835" y2="-373.9194" gradientTransform="matrix(0.229 -0.9734 -0.9734 -0.229 -441.0006 1207.9001)">
				<stop  offset="1.945340e-03" style="stop-color:#78784E"/>
				<stop  offset="0.8301" style="stop-color:#BEBA85"/>
			</linearGradient>
			<path fill="url(#SVGID_1_)" d="M212.8,111.1l0.2,3.4l-3.6-2l-5.2-7.2C204.2,100.3,212.8,111.1,212.8,111.1z"/>
			
				<linearGradient id="SVGID_2_" gradientUnits="userSpaceOnUse" x1="1213.7327" y1="-372.1793" x2="1224.3711" y2="-362.4527" gradientTransform="matrix(0.229 -0.9734 -0.9734 -0.229 -441.0006 1207.9001)">
				<stop  offset="1.945340e-03" style="stop-color:#78784E"/>
				<stop  offset="0.8301" style="stop-color:#BEBA85"/>
			</linearGradient>
			<path fill="url(#SVGID_2_)" d="M195.1,105.5l8.1,4.8l-1.2,2.1c0,0-9.5-3.2-11-6.6C189.5,102.3,195.1,105.5,195.1,105.5z"/>
			
				<linearGradient id="SVGID_3_" gradientUnits="userSpaceOnUse" x1="1213.8981" y1="-376.3186" x2="1217.9675" y2="-372.598" gradientTransform="matrix(0.229 -0.9734 -0.9734 -0.229 -441.0006 1207.9001)">
				<stop  offset="1.945340e-03" style="stop-color:#3C2826"/>
				<stop  offset="1" style="stop-color:#B6A4A0"/>
			</linearGradient>
			<path fill="url(#SVGID_3_)" d="M206.6,111.3c0,0-6.6,4.8-6.8,1.7c-0.2-3.1,1.7-4.1,1.7-4.1L206.6,111.3z"/>
			
				<linearGradient id="SVGID_4_" gradientUnits="userSpaceOnUse" x1="1215.0214" y1="-386.0179" x2="1220.5625" y2="-387.8645" gradientTransform="matrix(0.229 -0.9734 -0.9734 -0.229 -441.0006 1207.9001)">
				<stop  offset="1.945340e-03" style="stop-color:#3C2826"/>
				<stop  offset="1" style="stop-color:#B6A4A0"/>
			</linearGradient>
			<path fill="url(#SVGID_4_)" d="M215.1,115.4l-4.5-3.2c0,0,0.7-2,3-2.8C216,108.5,215.1,115.4,215.1,115.4z"/>
			
				<linearGradient id="SVGID_5_" gradientUnits="userSpaceOnUse" x1="1204.9108" y1="-421.7144" x2="1209.1003" y2="-417.8839" gradientTransform="matrix(0.229 -0.9734 -0.9734 -0.229 -441.0006 1207.9001)">
				<stop  offset="1.945340e-03" style="stop-color:#3C2826"/>
				<stop  offset="1" style="stop-color:#B6A4A0"/>
			</linearGradient>
			<path fill="url(#SVGID_5_)" d="M249.6,130.2c0,0-8.4,3.5-9.5,0.9c-1-2.6,5.5-2,5.5-2L249.6,130.2z"/>
			
				<linearGradient id="SVGID_6_" gradientUnits="userSpaceOnUse" x1="1214.566" y1="-405.8363" x2="1206.4935" y2="-418.1696" gradientTransform="matrix(0.229 -0.9734 -0.9734 -0.229 -441.0006 1207.9001)">
				<stop  offset="1.945340e-03" style="stop-color:#78784E"/>
				<stop  offset="0.8301" style="stop-color:#BEBA85"/>
			</linearGradient>
			<path fill="url(#SVGID_6_)" d="M247.2,128.2l-17.6-6c1.6-0.8,8.7,1.3,8.7,1.3s-6.7-4.7-5-6.1
				C235.2,115.9,246.9,127.6,247.2,128.2z"/>
			
				<linearGradient id="SVGID_7_" gradientUnits="userSpaceOnUse" x1="1239.22" y1="-366.246" x2="1189.8459" y2="-441.6814" gradientTransform="matrix(0.229 -0.9734 -0.9734 -0.229 -441.0006 1207.9001)">
				<stop  offset="1.945340e-03" style="stop-color:#3C2826"/>
				<stop  offset="1" style="stop-color:#B6A4A0"/>
			</linearGradient>
			<path fill="url(#SVGID_7_)" d="M190.1,93.9c0,0,9.7,3,20.6,18.4c0,0,13.7,7.5,36.6,16c22.9,8.5,28.8,10.6,33.2,16.3l4.6,5.8
				c0,0-16.4-14.1-37.2-20.1c-20.9-6.1-53.2-23-60.3-30.8c0,0,10.9,7.3,18.1,10.7C212.7,113.4,195.8,96.9,190.1,93.9z"/>
			
				<linearGradient id="SVGID_8_" gradientUnits="userSpaceOnUse" x1="1220.9974" y1="-455.213" x2="1227.7488" y2="-449.0403" gradientTransform="matrix(0.229 -0.9734 -0.9734 -0.229 -441.0006 1207.9001)">
				<stop  offset="1.945340e-03" style="stop-color:#3C2826"/>
				<stop  offset="1" style="stop-color:#B6A4A0"/>
			</linearGradient>
			<path fill="url(#SVGID_8_)" d="M281.9,125l-1.3-0.2c0,0-3.1-6.6-1.3-7.4C281.1,116.5,281.9,125,281.9,125z"/>
			<g>
				
					<linearGradient id="SVGID_9_" gradientUnits="userSpaceOnUse" x1="1240.2305" y1="-441.9422" x2="1245.8868" y2="-438.3632" gradientTransform="matrix(0.229 -0.9734 -0.9734 -0.229 -441.0006 1207.9001)">
					<stop  offset="1.945340e-03" style="stop-color:#78784E"/>
					<stop  offset="0.8301" style="stop-color:#BEBA85"/>
				</linearGradient>
				<path fill="url(#SVGID_9_)" d="M275,103.3l-3.8-2.6c-2-3.6-1.5-7.1-1.5-7.1C275.5,98.9,275,103.3,275,103.3z"/>
				
					<linearGradient id="SVGID_10_" gradientUnits="userSpaceOnUse" x1="1239.8558" y1="-448.8756" x2="1242.8491" y2="-441.2736" gradientTransform="matrix(0.229 -0.9734 -0.9734 -0.229 -441.0006 1207.9001)">
					<stop  offset="1.945340e-03" style="stop-color:#3C2826"/>
					<stop  offset="1" style="stop-color:#B6A4A0"/>
				</linearGradient>
				<path fill="url(#SVGID_10_)" d="M279.2,105.7l-4.2-2.4c-1.1-3-0.5-6-0.5-6C277.5,100.2,279.2,105.7,279.2,105.7z"/>
				
					<linearGradient id="SVGID_11_" gradientUnits="userSpaceOnUse" x1="1229.1981" y1="-466.757" x2="1243.7448" y2="-429.8137" gradientTransform="matrix(0.229 -0.9734 -0.9734 -0.229 -441.0006 1207.9001)">
					<stop  offset="1.945340e-03" style="stop-color:#3C2826"/>
					<stop  offset="1" style="stop-color:#B6A4A0"/>
				</linearGradient>
				<path fill="url(#SVGID_11_)" d="M297.2,119.3l-3.4,0.4c-0.7-0.9-14-14.9-31.7-23.4l0.6-0.6C262.7,95.8,288.6,109.7,297.2,119.3z
					"/>
				
					<linearGradient id="SVGID_12_" gradientUnits="userSpaceOnUse" x1="1247.4442" y1="-421.9625" x2="1243.2396" y2="-428.3866" gradientTransform="matrix(0.229 -0.9734 -0.9734 -0.229 -441.0006 1207.9001)">
					<stop  offset="1.945340e-03" style="stop-color:#3C2826"/>
					<stop  offset="1" style="stop-color:#B6A4A0"/>
				</linearGradient>
				<path fill="url(#SVGID_12_)" d="M262.7,95.8l-0.6,0.6c0,0-1,2.5-8-4.8C254.1,91.5,261.6,92.2,262.7,95.8z"/>
			</g>
			
				<linearGradient id="SVGID_13_" gradientUnits="userSpaceOnUse" x1="1221.6442" y1="-452.4318" x2="1229.5997" y2="-447.3979" gradientTransform="matrix(0.229 -0.9734 -0.9734 -0.229 -441.0006 1207.9001)">
				<stop  offset="1.945340e-03" style="stop-color:#78784E"/>
				<stop  offset="0.8301" style="stop-color:#BEBA85"/>
			</linearGradient>
			<path fill="url(#SVGID_13_)" d="M280.9,122.7l-0.3,2.1c0,0-6-6.4-5.8-12.6C275,105.4,278.4,120.4,280.9,122.7z"/>
			
				<linearGradient id="SVGID_14_" gradientUnits="userSpaceOnUse" x1="1234.3998" y1="-426.6025" x2="1239.5172" y2="-423.3645" gradientTransform="matrix(0.229 -0.9734 -0.9734 -0.229 -441.0006 1207.9001)">
				<stop  offset="1.945340e-03" style="stop-color:#78784E"/>
				<stop  offset="0.8301" style="stop-color:#BEBA85"/>
			</linearGradient>
			<path fill="url(#SVGID_14_)" d="M260,104.6l-0.6,0.4c-1.4-1.6-8.2-5.2-7.6-7.8C254.3,96.9,260,102.2,260,104.6z"/>
			
				<linearGradient id="SVGID_15_" gradientUnits="userSpaceOnUse" x1="1232.8099" y1="-432.1461" x2="1240.5065" y2="-425.1093" gradientTransform="matrix(0.229 -0.9734 -0.9734 -0.229 -441.0006 1207.9001)">
				<stop  offset="1.945340e-03" style="stop-color:#3C2826"/>
				<stop  offset="1" style="stop-color:#B6A4A0"/>
			</linearGradient>
			<path fill="url(#SVGID_15_)" d="M262.2,108.4c0,0,0.7-4.5-3.1-8.6C259.1,99.8,255.5,101.1,262.2,108.4z"/>
			
				<linearGradient id="SVGID_16_" gradientUnits="userSpaceOnUse" x1="1235.584" y1="-388.4998" x2="1240.8535" y2="-383.6819" gradientTransform="matrix(0.229 -0.9734 -0.9734 -0.229 -441.0006 1207.9001)">
				<stop  offset="1.945340e-03" style="stop-color:#3C2826"/>
				<stop  offset="1" style="stop-color:#B6A4A0"/>
			</linearGradient>
			<path fill="url(#SVGID_16_)" d="M221.9,94.3c0,0-3.7-4.6-4.8-4.3c-1.1,0.3,0.9,3.6,0.9,3.6L221.9,94.3z"/>
			
				<linearGradient id="SVGID_17_" gradientUnits="userSpaceOnUse" x1="1249.3534" y1="-389.8579" x2="1198.2135" y2="-467.9911" gradientTransform="matrix(0.229 -0.9734 -0.9734 -0.229 -441.0006 1207.9001)">
				<stop  offset="1.945340e-03" style="stop-color:#3C2826"/>
				<stop  offset="1" style="stop-color:#B6A4A0"/>
			</linearGradient>
			<path fill="url(#SVGID_17_)" d="M254.9,103.1c-7.9-5.9-21.8-14.9-33.3-19.6l1.2-1.2c0,0,28.5,15.4,37.8,23.1
				c10.1,8.4,33.5,31.3,48.1,44.2l-1.8,4.7c0,0-35.1-39.4-45.6-43.2c-10.5-3.9-29-12-31.1-13.2c-2-1.2-9.7-4.2-12.1-4.5
				c-2.4-0.2,4.1-1.5,15.4,4.7c11.3,6.2,20.7,8.1,27.4,10.5C260.9,108.8,262.8,109,254.9,103.1z"/>
			
				<linearGradient id="SVGID_18_" gradientUnits="userSpaceOnUse" x1="1244.3059" y1="-380.8559" x2="1252.7407" y2="-375.5188" gradientTransform="matrix(0.229 -0.9734 -0.9734 -0.229 -441.0006 1207.9001)">
				<stop  offset="1.945340e-03" style="stop-color:#78784E"/>
				<stop  offset="0.8301" style="stop-color:#BEBA85"/>
			</linearGradient>
			<path fill="url(#SVGID_18_)" d="M212.4,72.8c0,0,15.3,12.3,10.2,11.1c-4.7-1.1-9.5-1.9-18.7-6.9c-2.1-1.1-3.2-6.6,8.9,0.1
				C212.8,77.2,206.8,67.9,212.4,72.8z"/>
			
				<linearGradient id="SVGID_19_" gradientUnits="userSpaceOnUse" x1="1244.3634" y1="-385.7203" x2="1253.381" y2="-377.4757" gradientTransform="matrix(0.229 -0.9734 -0.9734 -0.229 -441.0006 1207.9001)">
				<stop  offset="1.945340e-03" style="stop-color:#3C2826"/>
				<stop  offset="1" style="stop-color:#B6A4A0"/>
			</linearGradient>
			<path fill="url(#SVGID_19_)" d="M224.3,83.4l-0.2,0.8c0,0-14.3-0.3-12.8-4.8C212,77.6,220,80.8,224.3,83.4z"/>
			
				<linearGradient id="SVGID_20_" gradientUnits="userSpaceOnUse" x1="1229.2638" y1="-366.8133" x2="1238.3767" y2="-358.4815" gradientTransform="matrix(0.229 -0.9734 -0.9734 -0.229 -441.0006 1207.9001)">
				<stop  offset="1.945340e-03" style="stop-color:#3C2826"/>
				<stop  offset="1" style="stop-color:#B6A4A0"/>
			</linearGradient>
			<path fill="url(#SVGID_20_)" d="M202.1,93.9l-0.2,1c0,0-13.4-2.8-12.5-5.1C190.3,87.5,202.1,93.9,202.1,93.9z"/>
			
				<linearGradient id="SVGID_21_" gradientUnits="userSpaceOnUse" x1="1234.6675" y1="-384.749" x2="1239.1749" y2="-380.6279" gradientTransform="matrix(0.229 -0.9734 -0.9734 -0.229 -441.0006 1207.9001)">
				<stop  offset="1.945340e-03" style="stop-color:#3C2826"/>
				<stop  offset="1" style="stop-color:#B6A4A0"/>
			</linearGradient>
			<path fill="url(#SVGID_21_)" d="M219.3,93.5c0,0-7.8,1.3-7.5-1.6C212,90.5,216.3,91.1,219.3,93.5z"/>
			
				<linearGradient id="SVGID_22_" gradientUnits="userSpaceOnUse" x1="1226.0758" y1="-382.2374" x2="1233.9701" y2="-377.2424" gradientTransform="matrix(0.229 -0.9734 -0.9734 -0.229 -441.0006 1207.9001)">
				<stop  offset="1.945340e-03" style="stop-color:#78784E"/>
				<stop  offset="0.8301" style="stop-color:#BEBA85"/>
			</linearGradient>
			<path fill="url(#SVGID_22_)" d="M220.7,101.8c-0.9-0.6-22.4-6-20.4-8.4c2-2.4,7.3,1.1,7.3,1.1s-3.1-2.5-2.2-3.5
				C207.4,89.1,220.7,101.8,220.7,101.8z"/>
			
				<linearGradient id="SVGID_23_" gradientUnits="userSpaceOnUse" x1="1217.9346" y1="-411.743" x2="1223.9138" y2="-406.2763" gradientTransform="matrix(0.229 -0.9734 -0.9734 -0.229 -441.0006 1207.9001)">
				<stop  offset="1.945340e-03" style="stop-color:#3C2826"/>
				<stop  offset="1" style="stop-color:#B6A4A0"/>
			</linearGradient>
			<path fill="url(#SVGID_23_)" d="M242.5,115.8c-0.6-0.3-9-0.2-9.6-2.1c-0.6-1.9,6.5-0.3,6.5-0.3L242.5,115.8z"/>
			
				<linearGradient id="SVGID_24_" gradientUnits="userSpaceOnUse" x1="1209.6478" y1="-447.0839" x2="1218.2596" y2="-439.2102" gradientTransform="matrix(0.229 -0.9734 -0.9734 -0.229 -441.0006 1207.9001)">
				<stop  offset="1.945340e-03" style="stop-color:#3C2826"/>
				<stop  offset="1" style="stop-color:#B6A4A0"/>
			</linearGradient>
			<path fill="url(#SVGID_24_)" d="M273,133.7l-3.3-2c0,0-3.1-3.4-2.9-5.8C267,123.4,273,133.7,273,133.7z"/>
			
				<linearGradient id="SVGID_25_" gradientUnits="userSpaceOnUse" x1="1226.8583" y1="-388.0548" x2="1208.1505" y2="-451.4532" gradientTransform="matrix(0.229 -0.9734 -0.9734 -0.229 -441.0006 1207.9001)">
				<stop  offset="1.945340e-03" style="stop-color:#3C2826"/>
				<stop  offset="1" style="stop-color:#B6A4A0"/>
			</linearGradient>
			<path fill="url(#SVGID_25_)" d="M237.2,111c5.6,3.5,26.1,14.5,30.5,17.7c4.4,3.2,10.3,8.5,10.3,8.5l0.7,3.7
				c0,0-11.2-10.8-15.6-13.3c-4.4-2.5-26.4-14.8-29.5-16.9c-3.1-2.1-20.7-11.3-20.7-11.3s6.4,1.9,4.5-0.6
				C217.5,98.9,231.6,107.6,237.2,111z"/>
			
				<linearGradient id="SVGID_26_" gradientUnits="userSpaceOnUse" x1="1221.9834" y1="-357.3209" x2="1227.9028" y2="-351.9088" gradientTransform="matrix(0.229 -0.9734 -0.9734 -0.229 -441.0006 1207.9001)">
				<stop  offset="1.945340e-03" style="stop-color:#3C2826"/>
				<stop  offset="1" style="stop-color:#B6A4A0"/>
			</linearGradient>
			<path fill="url(#SVGID_26_)" d="M188.6,100.4c0,0-7.4-2-5.3-4.8C185.4,92.8,188.6,100.4,188.6,100.4z"/>
		</g>
		
			<linearGradient id="SVGID_27_" gradientUnits="userSpaceOnUse" x1="-1045.8445" y1="619.5443" x2="-1076.1106" y2="640.9832" gradientTransform="matrix(-0.4238 0.9057 -0.9057 -0.4238 381.6098 1331.5078)">
			<stop  offset="0" style="stop-color:#2B2922"/>
			<stop  offset="1" style="stop-color:#696553"/>
		</linearGradient>
		<path fill="url(#SVGID_27_)" d="M270.6,116.8c0,0,34.7-23.3-12.6-53.8c0,0-37.8,32.6-14.9,50.6L270.6,116.8z"/>
		<g>
			<g>
				
					<linearGradient id="SVGID_28_" gradientUnits="userSpaceOnUse" x1="-880.0869" y1="-142.6923" x2="-902.8234" y2="-161.2808" gradientTransform="matrix(-0.8746 0.4848 -0.4848 -0.8746 -499.7815 455.6938)">
					<stop  offset="1.945340e-03" style="stop-color:#3C2826"/>
					<stop  offset="1" style="stop-color:#6F6D53"/>
				</linearGradient>
				<path fill="url(#SVGID_28_)" d="M362.7,165.3c4.3,2,4.1-1.4,5.7-3.3c1.6-1.9,2.3-2.5,1.2-7c-1.1-4.5-5.1-4-10.5-4
					c-5.4,0-27.5,2.6-27.5,2.6l0.4,1.4C335.9,154.7,358.4,163.3,362.7,165.3z"/>
				<g>
					<path fill="#3C2826" d="M337.1,155.9c4.5,0.9,8.9,2,13.3,3.3c3.5,1,6.9,2.1,10.3,3.3c1.8,0.6,4.3,1.2,5.9,2.5
						c0.1-0.1,0.2-0.2,0.2-0.4c-1.3-1.1-3.2-1.6-4.7-2.2c-3.2-1.1-6.4-2.2-9.6-3.1c-5.9-1.8-12-3.2-18.1-4.4c0.2,0,0.5,0,0.7,0
						c4,0.6,7.9,1.3,11.8,2.3c3.5,0.8,6.9,1.7,10.4,2.7c1.8,0.5,3.5,0.9,5.3,1.4c1.1,0.3,2.1,0.6,3.1,1c0.6,0.2,1.3,0.5,1.9,0.8
						c0.1-0.1,0.1-0.3,0.2-0.4c-1-0.5-2.1-0.9-3.1-1.2c-1.8-0.6-3.6-1.1-5.3-1.5c-3.7-1-7.4-2-11.2-2.9c-3.2-0.8-6.4-1.5-9.6-2
						c0.4,0,0.8,0,1.2,0c4.5,0.7,9,1.6,13.5,2.5c3.5,0.7,7.1,1.3,10.6,2.1c1.5,0.3,3,0.7,4.4,1.3c0.2,0.1,0.4,0.2,0.6,0.3
						c0.1-0.1,0.2-0.2,0.3-0.4c-0.4-0.2-0.9-0.4-1.3-0.5c-1.3-0.5-2.6-0.8-4-1.1c-3.7-0.8-7.4-1.4-11.1-2.1
						c-2.9-0.6-5.8-1.1-8.7-1.7c2.8,0.2,5.5,0.5,8.3,0.8c3.2,0.3,6.4,0.7,9.6,1.1c1.6,0.2,3.2,0.3,4.8,0.5c0.9,0.1,2,0.2,3,0.4
						c0-0.1,0-0.3,0-0.4c-0.4-0.1-0.9-0.2-1.3-0.2c-1.7-0.3-3.5-0.4-5.2-0.5c-3.5-0.3-6.9-0.8-10.4-1.2c-4.4-0.5-8.8-0.9-13.1-1.1
						c-1.7-0.2-3.3-0.4-5-0.6c5.6-0.4,11.2-0.8,16.8-1c3.5-0.1,7-0.2,10.4-0.1c2.2,0,4.4,0.3,6.6,0.3c-0.1-0.2-0.2-0.3-0.3-0.5
						c-2.1,0-4.2-0.3-6.3-0.3c-3.5,0-7,0-10.4,0.1c-6.7,0.2-13.4,0.8-20.1,1.2l0.3,1.1C332.9,154.8,334.7,155.3,337.1,155.9z"/>
					<path fill="#3C2826" d="M358.2,154.2c-5.3-0.2-19.8-0.4-25.1-0.2c-0.3,0-0.3,0.5,0,0.5c5.2-0.2,19.5-0.1,24.7,0.1
						c2.7,0.1,5.3,0.3,8,0.4c1.3,0.1,2.5,0,3.8,0.1c0-0.1,0-0.1-0.1-0.2c0-0.1,0-0.2-0.1-0.3c-1.1,0-2.2,0-3.3-0.1
						C363.5,154.6,360.9,154.3,358.2,154.2z"/>
				</g>
			</g>
			<g>
				<g>
					
						<linearGradient id="SVGID_29_" gradientUnits="userSpaceOnUse" x1="-914.2948" y1="-53.7415" x2="-941.4594" y2="-73.0036" gradientTransform="matrix(-0.8702 0.4928 -0.4928 -0.8702 -499.5739 584.5924)">
						<stop  offset="1.945340e-03" style="stop-color:#3C2826"/>
						<stop  offset="1" style="stop-color:#6F6D53"/>
					</linearGradient>
					<path fill="url(#SVGID_29_)" d="M343.3,190.1c3.5,3.8,8.5,4.7,12.7,2.3c4.2-2.4,3.1-7.1,3.7-13.2c0.5-6.1-7.6-5.5-7.6-5.5
						s-10.1,2.3-13.6,3.5c-3.5,1.2-12.2-0.4-12.2-0.4l0,0C326.2,176.9,339.8,186.3,343.3,190.1z"/>
				</g>
				<path fill="#3C2826" d="M332.2,181.2c0.4,0.3,0.9,0.5,1.3,0.8c0.7,0.5,1.4,1.1,2.1,1.6c2.5,1.9,5,3.7,7.8,5.1
					c2.7,1.3,5.4,2.8,8.3,3.7c1.1,0.3,2.1,0.5,3.2,0.6c0.3-0.1,0.6-0.3,0.9-0.4c-1.2,0-2.4-0.2-3.6-0.5c-2.8-0.8-5.5-2.3-8.2-3.5
					c-2.6-1.2-4.9-2.8-7.2-4.5c-0.1-0.1-0.2-0.2-0.4-0.3c0.2,0.1,0.4,0.3,0.7,0.4c3.8,2.2,7.9,3.9,12.2,5.1c2.1,0.6,4.3,1,6.5,1.2
					c0.8,0.1,1.6,0,2.4,0c0.1-0.2,0.2-0.3,0.3-0.5c-0.4,0-0.7,0-1.1,0c-2.1,0-4.2-0.3-6.3-0.8c-4.1-0.9-8.1-2.5-11.8-4.4
					c-2.1-1.1-4.1-2.3-6.1-3.5c0,0,0,0,0,0c0.3,0.1,0.7,0.3,1,0.4c3,1.5,6.1,2.9,9.3,3.9c3.2,1.1,6.5,1.8,9.8,2
					c1.7,0.1,3.3-0.1,5-0.2c0.3,0,0.6-0.1,1-0.1c0-0.2,0-0.3,0.1-0.5c-1.4,0.2-2.9,0.3-4.3,0.4c-3.2,0.1-6.5-0.6-9.7-1.5
					c-3.2-0.9-6.3-2.2-9.3-3.6c-1.2-0.5-2.3-1.1-3.5-1.7c-0.1-0.1-0.3-0.1-0.4-0.2c3.1,1.3,6.4,2.3,9.7,3c3.4,0.7,7,1.2,10.5,1.4
					c1.8,0.1,3.6,0.1,5.4,0c0.6,0,1.2-0.1,1.8-0.2c0-0.2,0-0.3,0-0.5c-0.4,0.1-0.7,0.1-1.1,0.2c-1.7,0.2-3.5,0.1-5.2,0.1
					c-3.6-0.1-7.3-0.6-10.8-1.3c-3.5-0.7-7-1.8-10.3-3.2c0.8,0.3,1.7,0.6,2.6,0.8c2.9,0.8,6,1,9,1.2c3.2,0.2,6.4,0.2,9.6,0.1
					c2.1-0.1,4.2-0.5,6.3-0.7c0-0.2,0-0.3,0-0.5c-2,0.2-3.9,0.6-5.9,0.7c-3,0.2-6.1,0.1-9.2,0c-4.5-0.2-8.8-0.8-12.9-2.3
					c0.9,0.2,1.8,0.3,2.7,0.5c3.2,0.5,6.3,0.6,9.5,0.4c3.1-0.2,6.3-0.5,9.4-1c1.6-0.3,3.2-0.5,4.8-1c0.5-0.1,1-0.3,1.5-0.5
					c0-0.1-0.1-0.3-0.1-0.4c-0.1,0-0.3,0.1-0.4,0.1c-1.4,0.5-2.8,0.7-4.3,1c-3.3,0.6-6.7,1-10.1,1.2c-3.2,0.2-6.3,0.1-9.5-0.3
					c-1.6-0.2-3.2-0.5-4.8-0.9c3.7,0.6,7.4,0.6,11.2,0.2c3.2-0.3,6.4-0.9,9.5-1.7c2.1-0.5,4.2-1.3,6.3-1.9c-0.2-0.1-0.4-0.2-0.6-0.3
					c-1.5,0.5-3,1-4.6,1.4c-3.2,0.9-6.5,1.5-9.7,1.9c-4.9,0.6-9.8,0.6-14.6-0.6c0,0,0,0,0,0c-1-0.1-1.6-0.3-1.6-0.3
					S328.9,178.8,332.2,181.2z"/>
			</g>
			<g>
				
					<linearGradient id="SVGID_30_" gradientUnits="userSpaceOnUse" x1="-899.3439" y1="-143.8647" x2="-911.4856" y2="-153.7914" gradientTransform="matrix(-0.8592 0.5116 -0.5116 -0.8592 -514.1025 475.8218)">
					<stop  offset="1.945340e-03" style="stop-color:#3C2826"/>
					<stop  offset="1" style="stop-color:#6F6D53"/>
				</linearGradient>
				<path fill="url(#SVGID_30_)" d="M328.1,146.3c0,0,6.3-1.3,9.4-1.3c3.1,0,10.9,0.1,11.4-4.1c0.5-4.2-0.4-6.2-2.5-6.9
					c-2.2-0.7-11.1,2.7-17.4,9.8l-1.7,1.6L328.1,146.3z"/>
				<path fill="#3C2826" d="M338.2,143.8c2.2-0.1,4.3-0.1,6.4-0.6c1.3-0.3,2.6-0.7,3.9-1.2c0.1-0.2,0.2-0.4,0.3-0.6
					c-1.1,0.4-2.3,0.8-3.4,1.1c-2.3,0.7-4.7,0.6-7.1,0.8c-2.2,0.1-4.4,0.8-6.6,1.3c2.4-1.1,4.9-2,7.6-2.2c3.4-0.3,6.6-1.6,9.8-2.8
					c0-0.2,0-0.3,0-0.5c-1.2,0.5-2.4,0.9-3.6,1.3c-2.3,0.8-4.6,1.3-7.1,1.6c-2.3,0.3-4.4,1-6.5,1.9c5.3-2.9,11-5.1,17.1-5.6
					c0-0.2,0-0.3,0-0.5c-6.1,0.5-11.8,2.7-17.1,5.6c0.4-0.2,0.8-0.5,1.2-0.7c1.9-1.1,3.7-2.3,5.7-3.4c3-1.6,6.7-2.9,10.1-2.6
					c0-0.2-0.1-0.3-0.1-0.5c-3.2-0.3-6.6,0.9-9.4,2.2c-2.1,1-4.1,2.4-6.1,3.6c-1.3,0.8-2.6,1.5-3.8,2.4c2.6-2,5.3-3.9,8.1-5.6
					c3.2-1.9,6.8-4.1,10.6-3.9c-0.1-0.2-0.3-0.3-0.5-0.5c-3.5,0-6.7,1.8-9.7,3.5c-3.6,2.1-7,4.5-10.2,7.2c-0.1,0-0.2,0-0.3,0
					c0,0-0.1,0-0.1,0l0.8,1c0,0,0.2,0,0.4-0.1c0.5-0.3,0.9-0.5,1.4-0.8C332.7,144.9,335.4,144,338.2,143.8z M329.9,144.7
					c0,0.1,0,0.1,0.1,0.2c-0.1,0-0.2,0.1-0.2,0.1c-0.1,0-0.2,0-0.4,0.1C329.6,144.9,329.7,144.8,329.9,144.7z"/>
			</g>
			<g>
				
					<linearGradient id="SVGID_31_" gradientUnits="userSpaceOnUse" x1="-873.1806" y1="-131.0731" x2="-892.0783" y2="-126.4639" gradientTransform="matrix(-0.8592 0.5116 -0.5116 -0.8592 -514.1025 475.8218)">
					<stop  offset="1.945340e-03" style="stop-color:#5E3E3C"/>
					<stop  offset="1" style="stop-color:#8F8D6B"/>
				</linearGradient>
				<path fill="url(#SVGID_31_)" d="M301.5,145.4c0,0,1-1.2,2.5-5.4c1.3-3.7,3.7-14,5.9-16.8c2.2-2.8,4.6-4.4,7.5,1.3
					c2,4,5.6,9.5,1.5,13.7c-1.2,1.2-3.6,1.6-5.3,2.1c-4.5,1.3-10.3,5.3-10.7,5.3L301.5,145.4z"/>
				<path fill="#4C3B3B" d="M312.2,121.1c-5.1,7.2-4.8,17.3-10.2,24.4c0.5,0,1.1,0.1,1.1,0.1c0.1,0,0.7-0.3,1.5-0.8
					c2.2-1.9,4.6-3.5,7.2-4.8c3.1-1.5,6.4-2.7,8.9-5c0-0.2,0.1-0.5,0.1-0.7c-2.7,2.8-6.6,4-10,5.8c-2.5,1.3-4.7,2.9-6.8,4.7
					c2.3-2.7,5-4.9,7.9-6.8c3-2,6.5-3.7,8.5-6.8c-0.1-0.2-0.1-0.4-0.2-0.6c-2.1,3.5-6.1,5.3-9.4,7.6c-2.1,1.4-4.1,3.1-5.9,4.9
					c0.2-0.3,0.4-0.6,0.6-0.9c4-5.2,9.7-9,13.4-14.6c-0.1-0.2-0.2-0.3-0.2-0.5c-3.1,4.8-7.8,8.4-11.6,12.6c1.4-2.3,2.7-4.6,4-6.9
					c1.9-3,4-5.8,6-8.7c-0.1-0.2-0.2-0.3-0.2-0.4c-2.1,3-4.3,5.8-6.2,8.9c-1.5,2.4-2.9,4.9-4.3,7.3c1-2.1,1.8-4.2,2.5-6.5
					c0.9-3,2.1-5.7,3.9-8.3c0.6-1,1.3-1.9,1.9-2.9c0.2-0.2,0.3-0.5,0.5-0.8c-0.1-0.1-0.2-0.2-0.3-0.2c-0.5,0.7-1,1.5-1.5,2.3
					c-1.5,2.5-3.2,4.8-4.2,7.7c-1,2.8-1.6,5.6-2.9,8.3c-0.7,1.5-1.5,2.9-2.4,4.2c4-7.1,4.1-16.2,9.2-22.7
					C312.8,120.8,312.5,120.9,312.2,121.1z"/>
			</g>
			<g>
				
					<linearGradient id="SVGID_32_" gradientUnits="userSpaceOnUse" x1="-854.3221" y1="-125.2414" x2="-861.7645" y2="-131.326" gradientTransform="matrix(-0.8592 0.5116 -0.5116 -0.8592 -514.1025 475.8218)">
					<stop  offset="1.945340e-03" style="stop-color:#3C2826"/>
					<stop  offset="1" style="stop-color:#6F6D53"/>
				</linearGradient>
				<path fill="url(#SVGID_32_)" d="M279.7,158.6c0,0,7-4.4,7.1-8c0-3.5-3.1-13.8-1.1-15.6c2-1.8,3.5-0.7,5.8-0.1
					c2.4,0.6,5.2,2.2,3.6,5.1c-1.6,3-6.6,14.6-11.3,17.6L279.7,158.6z"/>
				<path fill="#3C2826" d="M283.8,157.6c1.7-1,3.4-3.2,5-5.7c1-1.9,1.8-3.9,2.6-5.9c0.9-2.4,1.9-4.8,2.7-7.2
					c0.3-0.7,0.5-1.5,0.8-2.2c-0.1-0.1-0.2-0.3-0.4-0.4c-0.1,0.3-0.2,0.5-0.2,0.7c-0.8,2-1.6,4-2.4,6.1c-0.9,2.3-1.7,4.8-2.8,7.1
					c0.4-1.1,0.6-2.3,0.8-3.6c0.6-3.8,1.7-7.6,3.1-11.2c-0.1-0.1-0.3-0.1-0.4-0.2c-1.3,3.3-2.3,6.7-3,10.1c-0.4,2.2-0.6,4.2-1.6,6.2
					c0.2-0.5,0.4-1.1,0.5-1.7c0.4-1.7,0.1-3.5,0-5.2c-0.2-3.3,0.8-6.8,1.7-10.1c-0.1,0-0.3-0.1-0.4-0.1c-0.8,2.9-1.5,5.8-1.7,8.7
					c-0.2,1.8,0.2,3.6,0.1,5.3c0,0.6-0.1,1.1-0.2,1.7c0-0.3,0.1-0.6,0.1-0.9c0.1-1.6-0.3-3.2-0.6-4.8c-0.4-2-0.6-3.9-0.7-6
					c0-1.4,0-2.8,0-4.2c-0.2,0.1-0.3,0.1-0.5,0.2c0,0.7,0,1.3,0,2c0,1.8,0,3.5,0.2,5.2c0.2,1.9,0.7,3.7,0.9,5.6
					c0.4,3.1-0.6,5.7-2.5,8.1c-0.4,0.4-0.7,0.8-1.1,1.2c-0.1,0.1-0.1,0.1-0.1,0.2c-0.3,0.3-0.6,0.7-0.9,1L283.8,157.6z M285.8,155.2
					c0.4-0.4,0.8-0.9,1.1-1.3c0,0,0.1,0,0.1-0.1c0,0,0,0,0,0c0.2-0.2,0.3-0.4,0.5-0.6c-0.7,1.1-1.5,2.1-2.4,3
					C285.4,155.9,285.6,155.5,285.8,155.2z"/>
			</g>
			<path fill="#3C2826" d="M312.9,156.7c0,0,13.5,7.7,20.3,6.2c0,0-10.1-1-18.9-6.8c0,0,12.4-1.1,17.8-1.1l-0.5-1.4l-14.7,1.1
				l12.1-8.8l-1.3-0.9c0,0-8.1,5.8-13.1,9.5c0,0-21.1,1.3-25.2,2.1c10.2-8.1,10.9-7.8,13.9-11l-1.7-0.1c0,0-10.5,8.8-17.6,11.4
				l-3,0.8l-7.9,3.5l1.3,2.5C274.3,163.6,285.8,157.1,312.9,156.7z"/>
			<path fill="#3C2826" d="M327.9,177.2c0,0-8.7-4.1-15.7-5.9c-5.4-1.4-16.9-4.7-16.9-4.7s8.2-5,27.6-0.4c0,0-13.8-5.7-29.2-1.1
				c0,0-3.4,0.1-5.2-0.5c-1.8-0.6-7.4-1.7-7.4-1.7l1.6,2.6c0,0,10.1,1.3,20.8,4.6c0,0,2.4,4.4,5.4,7.3l2.6,1.7c0,0-5.4-4.9-6.4-8.1
				c0,0,3.8,0.6,6.8,1.2c0,0,4.7,6.7,7,9.3l-1.2-2.1l-5-7.1l15.9,6.3L327.9,177.2z"/>
		</g>
		<g>
			
				<linearGradient id="SVGID_33_" gradientUnits="userSpaceOnUse" x1="-920.8311" y1="-1080.6168" x2="-907.4146" y2="-1057.1947" gradientTransform="matrix(0.9995 -3.240000e-02 3.240000e-02 0.9995 1246.681 1238.0583)">
				<stop  offset="0" style="stop-color:#27291E"/>
				<stop  offset="1" style="stop-color:#9B9C5E"/>
			</linearGradient>
			<path fill="url(#SVGID_33_)" d="M284.5,193.2c0,0,2.5,22.4,11.2,28.5c0,0-0.2-5.5-2.3-14.4c-0.1-0.3-0.2-0.7-0.2-1
				c-2.4-9.5,4.8,6.7,15.6,11.3c0,0-2.2-4.3-6.4-8.9c0,0,9.4,2,16.2-5.5c0,0-10.6,9.2-28.3-10.9c0,0-7.7-13.6-7.7-12.9
				C282.5,180.1,284.5,193.2,284.5,193.2z"/>
			<g>
				
					<linearGradient id="SVGID_34_" gradientUnits="userSpaceOnUse" x1="-924.5321" y1="-1093.517" x2="-889.0022" y2="-1068.6461" gradientTransform="matrix(0.9995 -3.240000e-02 3.240000e-02 0.9995 1246.681 1238.0583)">
					<stop  offset="0.1754" style="stop-color:#2A2423"/>
					<stop  offset="0.2061" style="stop-color:#312A29"/>
					<stop  offset="0.3195" style="stop-color:#493E3B"/>
					<stop  offset="0.4379" style="stop-color:#5F504B"/>
					<stop  offset="0.5608" style="stop-color:#716058"/>
					<stop  offset="0.6901" style="stop-color:#7F6B61"/>
					<stop  offset="0.83" style="stop-color:#887367"/>
					<stop  offset="1" style="stop-color:#8B7569"/>
				</linearGradient>
				<path fill="url(#SVGID_34_)" d="M324.5,191.4c-5.2-6.2-13.2-22.1-36.2-28.2l-7.9,16c0,0,5.6,18,26.6,20.5
					c21,2.5,31.5,3.1,31.5,3.1S329.7,197.6,324.5,191.4z"/>
				<path fill="#2B2522" d="M303.3,195.5c-15.8-5-21.9-22.5-21.9-22.5l0.2,5.5c4.2,4.9,4.8,13.5,20.4,18.9
					c10.7,3.7,36.6,5.4,36.6,5.4S318.2,200.3,303.3,195.5z"/>
				<path opacity="0.8" fill="#2B2522" d="M290.5,165.9l0.6,4.8c0,0,26.3,24.6,47.4,32.1C338.5,202.8,320.1,195.7,290.5,165.9z"/>
				<path opacity="0.4" fill="#2B2522" d="M338.5,202.8c0,0-46.8-6-54.8-26.9l1.8-0.3C285.6,175.6,294.8,194,338.5,202.8z"/>
				<path opacity="0.4" fill="#2B2522" d="M314,182c-9.8-13.1-13.4-14.1-13.4-14.1l-2.9,2.6c0.7,0.4,5.6,3,14,11.8
					c8.5,8.8,21.5,18.6,26.8,20.5C338.5,202.8,323.7,195.1,314,182z"/>
				<g opacity="0.4">
					<path fill="#2B2522" d="M289.6,173.7l-2.2,2.6c0,0,18.3,17.1,51.1,26.5C337.2,202.4,317.4,196.5,289.6,173.7z"/>
					<path fill="#2B2522" d="M338.5,202.8C338.6,202.8,338.5,202.8,338.5,202.8C338.5,202.8,338.6,202.8,338.5,202.8z"/>
				</g>
			</g>
			<g>
				
					<linearGradient id="SVGID_35_" gradientUnits="userSpaceOnUse" x1="-942.2111" y1="-1098.4946" x2="-996.9511" y2="-1057.1908" gradientTransform="matrix(0.9995 -3.240000e-02 3.240000e-02 0.9995 1246.681 1238.0583)">
					<stop  offset="0.1754" style="stop-color:#2A2423"/>
					<stop  offset="0.2228" style="stop-color:#322B29"/>
					<stop  offset="0.3569" style="stop-color:#463C38"/>
					<stop  offset="0.4975" style="stop-color:#574944"/>
					<stop  offset="0.6454" style="stop-color:#63544C"/>
					<stop  offset="0.8055" style="stop-color:#6B5B52"/>
					<stop  offset="1" style="stop-color:#6E5D53"/>
				</linearGradient>
				<path fill="url(#SVGID_35_)" d="M214.8,215.1c2.9-0.1,8.2-10.5,9.7-12.9c6.4-10.6,11.3-27.1,26.7-27l18.9,6.2
					C270.1,181.4,250.1,212.2,214.8,215.1z"/>
				<path opacity="0.4" fill="#2B2522" d="M214.8,215.1c0,0,32-8.9,49.2-33.2l1.5,1.3C265.5,183.1,250,207.2,214.8,215.1z"/>
				<path opacity="0.4" fill="#2B2522" d="M214.8,215.1c0,0,11.3-5.8,19.8-19.8c8.5-14.1,14.8-13.9,17.4-14.7l1.1,2.6
					c0,0-4.9-3.3-16.5,12.6C225.1,211.6,214.8,215.1,214.8,215.1z"/>
				<path fill="#2B2522" d="M214.8,215.1c0,0,4.7-1.6,14.4-18.1c9.6-16.5,11.3-15.5,18.3-20.3l1.3,1.6c0,0-9.5,5.2-17.7,18.9
					C221.8,212.6,214.8,215.1,214.8,215.1z"/>
				<path fill="#2B2522" d="M214.8,215.1c0,0,19.2-5.3,39.6-28.3l-1.5-1.5C252.9,185.2,233.4,207.6,214.8,215.1z"/>
			</g>
			
				<linearGradient id="SVGID_36_" gradientUnits="userSpaceOnUse" x1="-957.35" y1="-1068.9056" x2="-944.3305" y2="-1066.9888" gradientTransform="matrix(0.9995 -3.240000e-02 3.240000e-02 0.9995 1246.681 1238.0583)">
				<stop  offset="3.517180e-03" style="stop-color:#292B1E"/>
				<stop  offset="1" style="stop-color:#777947"/>
			</linearGradient>
			<path fill="url(#SVGID_36_)" d="M264.1,180.2c0,0-9.4,31.7-16.6,36.5c0,0,8-4.4,11.1-7.6c0,0-1.6,7.8,3.6,14
				c0,0-0.4-25.9,6.9-38.9L264.1,180.2z"/>
			<g>
				
					<linearGradient id="SVGID_37_" gradientUnits="userSpaceOnUse" x1="-936.6711" y1="-1100.78" x2="-938.0176" y2="-1042.8773" gradientTransform="matrix(0.9995 -3.240000e-02 3.240000e-02 0.9995 1246.681 1238.0583)">
					<stop  offset="0.1754" style="stop-color:#2A2423"/>
					<stop  offset="0.2061" style="stop-color:#312A29"/>
					<stop  offset="0.3195" style="stop-color:#493E3B"/>
					<stop  offset="0.4379" style="stop-color:#5F504B"/>
					<stop  offset="0.5608" style="stop-color:#716058"/>
					<stop  offset="0.6901" style="stop-color:#7F6B61"/>
					<stop  offset="0.83" style="stop-color:#887367"/>
					<stop  offset="1" style="stop-color:#8B7569"/>
				</linearGradient>
				<path fill="url(#SVGID_37_)" d="M279.9,176.5l-10.9,0.8c0,0-11.4,28.6-2.7,43.8c8.7,15.2,12.8,17.9,12.8,17.9s2.9-10.2,5.8-17.6
					C287.9,214,289.5,192.1,279.9,176.5z"/>
				<path opacity="0.7" fill="#2B2522" d="M268.4,220.3c-1.7-4.6-3.9-21.1,1.4-36.6l-1.7-0.9c0,0-6.9,25.4,0,38.8
					c7,13.4,11,17.3,11,17.3S270.1,224.9,268.4,220.3z"/>
				<path opacity="0.7" fill="#2B2522" d="M279.2,239c10.6-37.5,0.7-58.2,0.7-58.2l1.3-0.8C281.2,180,292.2,201.7,279.2,239z"/>
				<g opacity="0.4">
					<path fill="#2B2522" d="M273.3,184.2l-1.4-0.7c0,0-11,31.1,7.2,55.5C277.6,236.8,263.9,216.3,273.3,184.2z"/>
					<path fill="#2B2522" d="M279.2,239C279.3,239.1,279.2,239,279.2,239C279.1,238.9,279.2,239,279.2,239z"/>
				</g>
				<path opacity="0.4" fill="#2B2522" d="M278.4,182l-1.5,1.1c2.3,11.6,2.2,55.8,2.2,55.8C283.4,215.8,278.4,182,278.4,182z"/>
				<path opacity="0.7" fill="#2B2522" d="M275.9,183.6l-1.4,0.2c0,0-3.3,39,4.6,55.1C279.2,239,273.9,220.7,275.9,183.6z"/>
			</g>
		</g>
		<g>
			
				<linearGradient id="SVGID_38_" gradientUnits="userSpaceOnUse" x1="-1473.2502" y1="1238.8165" x2="-1461.8228" y2="1258.7661" gradientTransform="matrix(0.1189 0.9929 -0.9929 0.1189 1626.9871 1486.662)">
				<stop  offset="0" style="stop-color:#27291E"/>
				<stop  offset="1" style="stop-color:#9B9C5E"/>
			</linearGradient>
			<path fill="url(#SVGID_38_)" d="M216.7,165.8c0,0-18.9,3.8-23.4,11.6c0,0,4.7-0.6,12-3c0.3-0.1,0.5-0.2,0.8-0.3
				c7.9-2.7-5.3,4.5-8.5,14.1c0,0,3.4-2.2,7.1-6.1c0,0-1,8.1,5.9,13.3c0,0-8.6-8.3,7.2-24.9c0,0,11-7.6,10.4-7.5
				C227.7,163.1,216.7,165.8,216.7,165.8z"/>
			<g>
				
					<linearGradient id="SVGID_39_" gradientUnits="userSpaceOnUse" x1="-1476.4084" y1="1227.8252" x2="-1446.1422" y2="1249.0116" gradientTransform="matrix(0.1189 0.9929 -0.9929 0.1189 1626.9871 1486.662)">
					<stop  offset="0.1754" style="stop-color:#2A2423"/>
					<stop  offset="0.2061" style="stop-color:#312A29"/>
					<stop  offset="0.3195" style="stop-color:#493E3B"/>
					<stop  offset="0.4379" style="stop-color:#5F504B"/>
					<stop  offset="0.5608" style="stop-color:#716058"/>
					<stop  offset="0.6901" style="stop-color:#7F6B61"/>
					<stop  offset="0.83" style="stop-color:#887367"/>
					<stop  offset="1" style="stop-color:#8B7569"/>
				</linearGradient>
				<path fill="url(#SVGID_39_)" d="M221.2,199.6c4.9-4.9,17.8-12.9,21.2-32.8l-14.1-5.5c0,0-14.9,6.1-15.4,24.1
					c-0.6,18-0.3,26.9-0.3,26.9S216.3,204.5,221.2,199.6z"/>
				<path fill="#2B2522" d="M216.1,181.9c3.1-13.8,17.5-20.2,17.5-20.2l-4.6,0.6c-3.8,4-11.1,5-14.5,18.7
					c-2.4,9.4-1.9,31.4-1.9,31.4S213.2,194.9,216.1,181.9z"/>
				<path opacity="0.8" fill="#2B2522" d="M240.3,168.9l-4,0.9c0,0-19,24.1-23.8,42.6C212.6,212.4,217.3,196.2,240.3,168.9z"/>
				<path opacity="0.4" fill="#2B2522" d="M212.6,212.4c0,0,1.6-40.2,18.8-48.5l0.4,1.5C231.7,165.4,216.8,174.6,212.6,212.4z"/>
				<path opacity="0.4" fill="#2B2522" d="M228.4,190c10.4-9.2,11-12.4,11-12.4l-2.4-2.2c-0.3,0.6-2.1,4.9-9,12.8
					c-6.9,7.8-14.2,19.6-15.4,24.3C212.6,212.4,218,199.2,228.4,190z"/>
				<g opacity="0.4">
					<path fill="#2B2522" d="M233.7,168.7l-2.3-1.7c0,0-13.2,16.8-18.8,45.3C212.8,211.2,216.4,194,233.7,168.7z"/>
					<path fill="#2B2522" d="M212.6,212.4C212.5,212.4,212.6,212.4,212.6,212.4C212.6,212.3,212.6,212.4,212.6,212.4z"/>
				</g>
			</g>
			<g>
				
					<linearGradient id="SVGID_40_" gradientUnits="userSpaceOnUse" x1="-1491.4624" y1="1223.59" x2="-1538.0912" y2="1258.7734" gradientTransform="matrix(0.1189 0.9929 -0.9929 0.1189 1626.9871 1486.662)">
					<stop  offset="0.1754" style="stop-color:#2A2423"/>
					<stop  offset="0.2228" style="stop-color:#322B29"/>
					<stop  offset="0.3569" style="stop-color:#463C38"/>
					<stop  offset="0.4975" style="stop-color:#574944"/>
					<stop  offset="0.6454" style="stop-color:#63544C"/>
					<stop  offset="0.8055" style="stop-color:#6B5B52"/>
					<stop  offset="1" style="stop-color:#6E5D53"/>
				</linearGradient>
				<path fill="url(#SVGID_40_)" d="M193,108.3c0.3,2.4,9.5,6.2,11.7,7.3c9.4,4.7,23.8,7.6,24.9,20.7l-3.9,16.5
					C225.7,152.7,198.1,138,193,108.3z"/>
				<path opacity="0.4" fill="#2B2522" d="M193,108.3c0,0,10,26.5,31.8,39.3l-1,1.4C223.9,148.9,202.3,137.6,193,108.3z"/>
				<path opacity="0.4" fill="#2B2522" d="M193,108.3c0,0,5.7,9.2,18.3,15.4c12.6,6.2,12.9,11.5,13.8,13.7l-2.1,1.1
					c0,0,2.4-4.4-11.9-13C196.7,116.8,193,108.3,193,108.3z"/>
				<path fill="#2B2522" d="M193,108.3c0,0,1.7,3.9,16.4,10.8c14.7,6.9,14,8.5,18.6,14l-1.3,1.2c0,0-5.1-7.7-17.4-13.7
					C195.6,114,193,108.3,193,108.3z"/>
				<path fill="#2B2522" d="M193,108.3c0,0,5.9,15.9,27,31.5l1.2-1.4C221.2,138.4,200.7,123.5,193,108.3z"/>
			</g>
			
				<linearGradient id="SVGID_41_" gradientUnits="userSpaceOnUse" x1="-1504.3577" y1="1248.7941" x2="-1493.2683" y2="1250.4269" gradientTransform="matrix(0.1189 0.9929 -0.9929 0.1189 1626.9871 1486.662)">
				<stop  offset="3.517180e-03" style="stop-color:#292B1E"/>
				<stop  offset="1" style="stop-color:#777947"/>
			</linearGradient>
			<path fill="url(#SVGID_41_)" d="M226.2,147.5c0,0-27.6-5.7-32.2-11.4c0,0,4.3,6.5,7.3,8.9c0,0-6.7-0.8-11.6,4.1
				c0,0,22-2.2,33.5,3L226.2,147.5z"/>
			<g>
				
					<linearGradient id="SVGID_42_" gradientUnits="userSpaceOnUse" x1="-1486.7437" y1="1221.6433" x2="-1487.8905" y2="1270.9604" gradientTransform="matrix(0.1189 0.9929 -0.9929 0.1189 1626.9871 1486.662)">
					<stop  offset="0.1754" style="stop-color:#2A2423"/>
					<stop  offset="0.2061" style="stop-color:#312A29"/>
					<stop  offset="0.3195" style="stop-color:#493E3B"/>
					<stop  offset="0.4379" style="stop-color:#5F504B"/>
					<stop  offset="0.5608" style="stop-color:#716058"/>
					<stop  offset="0.6901" style="stop-color:#7F6B61"/>
					<stop  offset="0.83" style="stop-color:#887367"/>
					<stop  offset="1" style="stop-color:#8B7569"/>
				</linearGradient>
				<path fill="url(#SVGID_42_)" d="M230.5,160.7l-1.5-9.2c0,0-25.1-7.5-37.3,1c-12.2,8.5-14.2,12.2-14.2,12.2s8.9,1.7,15.3,3.7
					C199.3,170.3,218,170,230.5,160.7z"/>
				<path opacity="0.7" fill="#2B2522" d="M192.6,154.2c3.8-1.8,17.6-4.8,31.2-1.5l0.6-1.5c0,0-22.1-4-32.9,2.9
					c-10.9,6.9-13.9,10.6-13.9,10.6S188.8,155.9,192.6,154.2z"/>
				<path opacity="0.7" fill="#2B2522" d="M177.5,164.6c32.6,6.2,49.4-3.7,49.4-3.7l0.8,1.1C227.7,162,210.1,173,177.5,164.6z"/>
				<g opacity="0.4">
					<path fill="#2B2522" d="M223.6,155.6l0.5-1.2c0,0-27.2-7-46.6,10.2C179.2,163.2,195.6,150,223.6,155.6z"/>
					<path fill="#2B2522" d="M177.5,164.6C177.4,164.7,177.5,164.6,177.5,164.6C177.6,164.6,177.5,164.7,177.5,164.6z"/>
				</g>
				<path opacity="0.4" fill="#2B2522" d="M225.8,159.8l-1.1-1.2c-9.7,2.8-47.2,6-47.2,6C197.5,166.5,225.8,159.8,225.8,159.8z"/>
				<path opacity="0.7" fill="#2B2522" d="M224.2,157.8l-0.3-1.1c0,0-33.4,0.1-46.4,8C177.5,164.6,192.6,158.8,224.2,157.8z"/>
			</g>
		</g>
		<g>
			
				<linearGradient id="SVGID_43_" gradientUnits="userSpaceOnUse" x1="-40.363" y1="-775.0515" x2="-31.7645" y2="-787.9493" gradientTransform="matrix(0.965 -0.2621 0.2621 0.965 570.2903 873.4625)">
				<stop  offset="2.334410e-03" style="stop-color:#D2BAD8"/>
				<stop  offset="1" style="stop-color:#9176AF"/>
			</linearGradient>
			<path fill="url(#SVGID_43_)" d="M339.5,124.2c1.2,4.5-1.4,9-5.9,10.3c-4.5,1.2-9-1.4-10.3-5.9c-1.2-4.5,1.4-9,5.9-10.3
				C333.7,117.1,338.3,119.7,339.5,124.2z"/>
			<path fill="#2B2522" d="M339.5,123.7c-1,0.8-2.4,0.6-3.2-0.3c-0.8-1-0.7-2.4,0.3-3.2c1-0.8,2.4-0.6,3.2,0.3
				C340.6,121.4,340.4,122.9,339.5,123.7z"/>
			<path opacity="0.2" fill="#FFFEFE" d="M331.2,126.6c1.2-2.9,7-3.9,6.9,0.9c-0.1,3.5-4.6,5.1-6.6,1.9
				C330.9,128.3,330.9,127.4,331.2,126.6z"/>
		</g>
		<g>
			
				<linearGradient id="SVGID_44_" gradientUnits="userSpaceOnUse" x1="1202.7064" y1="-49.661" x2="1211.3044" y2="-62.5581" gradientTransform="matrix(-2.920000e-02 -0.9996 0.9996 -2.920000e-02 333.7305 1291.1191)">
				<stop  offset="2.334410e-03" style="stop-color:#D2BAD8"/>
				<stop  offset="1" style="stop-color:#9176AF"/>
			</linearGradient>
			<circle fill="url(#SVGID_44_)" cx="240.3" cy="84.9" r="8.4"/>
			<path fill="#2B2522" d="M239.5,76.5c0.5,1.1,0.1,2.5-1.1,3c-1.1,0.5-2.5,0.1-3-1.1c-0.5-1.1-0.1-2.5,1.1-3
				C237.6,74.9,238.9,75.4,239.5,76.5z"/>
			<path opacity="0.2" fill="#FFFEFE" d="M240.4,85.2c-2.5-1.8-2.2-7.7,2.5-6.5c3.4,0.9,3.9,5.7,0.3,6.8
				C242.1,85.9,241.1,85.7,240.4,85.2z"/>
		</g>
		<g>
			
				<linearGradient id="SVGID_45_" gradientUnits="userSpaceOnUse" x1="-740.093" y1="233.3264" x2="-731.494" y2="220.4279" gradientTransform="matrix(0.7761 0.6306 -0.6306 0.7761 1044.7073 455.3755)">
				<stop  offset="2.334410e-03" style="stop-color:#BB8AB9"/>
				<stop  offset="1" style="stop-color:#825499"/>
			</linearGradient>
			<circle fill="url(#SVGID_45_)" cx="333" cy="166.7" r="8.4"/>
			<circle fill="#2B2522" cx="340.5" cy="169.4" r="2.3"/>
			<path opacity="0.2" fill="#FFFEFE" d="M332.7,166.7c3-0.7,7.3,3.3,3.3,6.1c-2.9,2-6.8-0.8-5.3-4.2
				C331.1,167.4,331.8,166.9,332.7,166.7z"/>
		</g>
		<g>
			<g>
				<g>
					
						<linearGradient id="SVGID_46_" gradientUnits="userSpaceOnUse" x1="406.7093" y1="688.6498" x2="436.5378" y2="712.6906" gradientTransform="matrix(-0.9563 0.2924 -0.2924 -0.9563 899.5202 710.3874)">
						<stop  offset="0" style="stop-color:#B35F84"/>
						<stop  offset="0.2573" style="stop-color:#7C4660"/>
						<stop  offset="0.5144" style="stop-color:#523142"/>
						<stop  offset="0.7317" style="stop-color:#37232F"/>
						<stop  offset="0.9004" style="stop-color:#291A22"/>
						<stop  offset="1" style="stop-color:#23161D"/>
					</linearGradient>
					<path fill="url(#SVGID_46_)" d="M276,152.5c-0.9,1.9-1.9,3.7-3.1,5.5c1.7,1.9,12.6,14.5,15.6,17.3c3.2,3,7.9,1.5,11.6,1.6
						c3.7,0,9.7-4.1,12.5-5.7c2.8-1.6,3.5-3.6,3.7-6.2c0.1-2.6-3.6-4-6.3-6.9c-2.7-2.9-33.9-5.7-33.9-5.7L276,152.5z"/>
					<g>
						<path opacity="0.2" fill="#040506" d="M273.7,156.7c14.9,17.9,26.4,17.8,26.4,17.8c-13.4-4.2-22.7-14.4-26-18.5
							C274,156.2,273.8,156.5,273.7,156.7z"/>
						<path opacity="0.4" fill="#040506" d="M274.2,155.9c11.9,14.1,31.5,17.8,31.5,17.8c-16.8-4.3-26.6-13.7-31-18.8
							C274.5,155.2,274.4,155.6,274.2,155.9z"/>
						<path opacity="0.2" fill="#040506" d="M275,154.5c14.7,14.5,33.7,15.1,33.7,15.1c-17.3-2.8-28.3-11.5-33.1-16.1
							C275.3,153.8,275.1,154.1,275,154.5z"/>
						<path opacity="0.4" fill="#040506" d="M280.9,153.6c0,0,17.4,12.1,32.7,13.3c0,0-21.2-4.7-33.8-14.6L280.9,153.6z"/>
						<path opacity="0.2" fill="#040506" d="M312.1,164.1c0.6,0.3-15.9-6.3-28.2-10c-12.3-3.7-0.7-0.7-0.7-0.7
							S302.1,158.8,312.1,164.1z"/>
						<path opacity="0.2" fill="#040506" d="M311.5,161.5c0,0-17.5-7-31.7-10.1C279.8,151.4,301.2,154.4,311.5,161.5z"/>
					</g>
				</g>
				<g>
					<g>
						
							<linearGradient id="SVGID_47_" gradientUnits="userSpaceOnUse" x1="395.1665" y1="727.0578" x2="427.6656" y2="724.1639" gradientTransform="matrix(-0.9563 0.2924 -0.2924 -0.9563 899.5202 710.3874)">
							<stop  offset="0" style="stop-color:#B35F84"/>
							<stop  offset="0.2002" style="stop-color:#944F6E"/>
							<stop  offset="0.5828" style="stop-color:#61364B"/>
							<stop  offset="0.8595" style="stop-color:#462837"/>
							<stop  offset="1" style="stop-color:#3C222F"/>
						</linearGradient>
						<path fill="url(#SVGID_47_)" d="M272.5,135.2c0,0,21.8-19.5,30.4-17.2c8.6,2.3,21.1,24.7,14.3,26.1
							c-6.8,1.4-41.3,0.9-41.3,0.9L272.5,135.2z"/>
						<path opacity="0.2" fill="#040506" d="M273.2,138.4c1.1-1.1,11.5-11,30-18.6c0,0-18.8,6.2-30.4,17.7
							C272.9,137.8,273,138.1,273.2,138.4z"/>
						<path opacity="0.2" fill="#040506" d="M273.7,139.7c2.6-1.2,25-11.7,33.8-17.1c0,0-25.4,12.6-34.3,15.8
							C273.4,138.9,273.5,139.3,273.7,139.7z"/>
						<path opacity="0.2" fill="#040506" d="M274.7,142.2c7.4-3.2,30.2-13.2,35.3-16.1c0,0-24,10.3-35.9,14.6
							C274.3,141.2,274.5,141.7,274.7,142.2z"/>
						<path opacity="0.2" fill="#040506" d="M275.7,144.9c5.6-1.9,32-11.2,35.6-14.6c0.5-0.4-25,10.3-36,13.4
							C275.4,144.1,275.6,144.5,275.7,144.9z"/>
						<path opacity="0.2" fill="#040506" d="M314.6,132.8l-16.4,5.7C298.2,138.5,309.4,136.5,314.6,132.8z"/>
						<polygon opacity="0.2" fill="#040506" points="317,136.5 305.6,140.7 306.1,141.7 						"/>
					</g>
					<path opacity="0.3" fill="#040506" d="M273.2,138.4c4.6-4,26.2-14.5,26.2-14.5c-9.4,3.1-26.3,13.3-26.6,13.5
						C272.9,137.8,273,138.1,273.2,138.4z"/>
					<path opacity="0.3" fill="#040506" d="M302,131.3c0,0-16.6,8.8-27.1,9.5l-0.1,1.2C274.8,142,293.8,138.5,302,131.3z"/>
				</g>
				<g>
					
						<linearGradient id="SVGID_48_" gradientUnits="userSpaceOnUse" x1="475.9724" y1="688.9741" x2="446.8116" y2="719.9157" gradientTransform="matrix(-0.9563 0.2924 -0.2924 -0.9563 899.5202 710.3874)">
						<stop  offset="0" style="stop-color:#B35F84"/>
						<stop  offset="0.2573" style="stop-color:#7C4660"/>
						<stop  offset="0.5144" style="stop-color:#523142"/>
						<stop  offset="0.7317" style="stop-color:#37232F"/>
						<stop  offset="0.9004" style="stop-color:#291A22"/>
						<stop  offset="1" style="stop-color:#23161D"/>
					</linearGradient>
					<path fill="url(#SVGID_48_)" d="M236,193.2c1.7,3.2,2,5,4.1,4.3c2.1-0.7,2.2-0.4,6.7,0.7c4.5,1.2,5.4-1.4,6.2-4.2
						c0.8-2.8,6.6-35.5,6.6-35.5l-5.4-3.9L234,184.2C233.3,187.5,234.3,190,236,193.2z"/>
					<path opacity="0.2" fill="#040506" d="M239.9,195.2c0,0,11.4-32.1,16.8-38.7l-1.1-0.6C255.6,156,244.1,179.3,239.9,195.2z"/>
					<path opacity="0.2" fill="#040506" d="M242.8,195.7c0,0,8.9-30.4,13.9-39.2l0.9,0.7C257.6,157.2,248.5,181,242.8,195.7z"/>
					<path opacity="0.2" fill="#040506" d="M236.9,192.4c0,0,10.8-28,17-35.9l-0.8-0.9C253.1,155.6,238.2,182.7,236.9,192.4z"/>
				</g>
				<g>
					
						<linearGradient id="SVGID_49_" gradientUnits="userSpaceOnUse" x1="438.2643" y1="779.3705" x2="438.9321" y2="737.5193" gradientTransform="matrix(-0.9563 0.2924 -0.2924 -0.9563 899.5202 710.3874)">
						<stop  offset="0" style="stop-color:#B35F84"/>
						<stop  offset="0.2573" style="stop-color:#7C4660"/>
						<stop  offset="0.5144" style="stop-color:#523142"/>
						<stop  offset="0.7317" style="stop-color:#37232F"/>
						<stop  offset="0.9004" style="stop-color:#291A22"/>
						<stop  offset="1" style="stop-color:#23161D"/>
					</linearGradient>
					<path fill="url(#SVGID_49_)" d="M257.5,134.9l6.5-3.1c0.1-0.5,7.9-39,5.4-40.3c-2.5-1.3-4.3,0.4-8-0.1
						c-3.6-0.5-10.6-2.6-13.8,0.5c-3.2,3.1-6,9.3-9.1,11.4C235.4,105.3,257.5,134.9,257.5,134.9z"/>
					<path opacity="0.2" fill="#040506" d="M244.6,97.2c0,0,9.9,17.9,12.1,34.2l-1.1,0.1C255.6,131.6,255.6,124.1,244.6,97.2z"/>
					<path opacity="0.2" fill="#040506" d="M242.3,101.2c0,0,7.8,14.8,11.2,24.5l-1.3,0.2L242.3,101.2z"/>
					<path opacity="0.2" fill="#040506" d="M254.9,91.5c0,0,5.7,26.1,6.1,39.6C261,131.1,259,101.6,254.9,91.5z"/>
					<path opacity="0.2" fill="#040506" d="M259.1,91.5c0,0,5.1,31.8,3.3,39.6l0.9,0C263.3,131,262.3,104.2,259.1,91.5z"/>
					<path opacity="0.2" fill="#040506" d="M258.1,133.1l1-0.5c-6.1-34.4-12.6-38.3-12.6-38.3C254.2,106.6,258.1,133.1,258.1,133.1z
						"/>
					<path opacity="0.2" fill="#040506" d="M249.3,92c0,0,8.5,17.9,9.8,38.2l1.2,0.1C260.3,130.3,257.8,105.3,249.3,92z"/>
				</g>
				<g>
					
						<linearGradient id="SVGID_50_" gradientUnits="userSpaceOnUse" x1="452.5423" y1="672.5885" x2="444.5293" y2="705.7537" gradientTransform="matrix(-0.9563 0.2924 -0.2924 -0.9563 899.5202 710.3874)">
						<stop  offset="0" style="stop-color:#F7E6CC"/>
						<stop  offset="0.4039" style="stop-color:#D9A1AE"/>
						<stop  offset="0.8094" style="stop-color:#BF5587"/>
					</linearGradient>
					<path fill="url(#SVGID_50_)" d="M249.8,195.7c2.2,2.6,6.4,4.1,9.1,6.8c2.7,2.7,3.2,5.3,6.1,5.4c2.8,0.1,4.1-4.3,9-4.1
						c4.9,0.1,7-0.7,9.9-3.5c2.9-2.7,5.3-10.7,7.2-13.6c1.9-2.9,2.7-4.8-2.1-10.8c-4.9-6-16.3-19.2-16.3-19.2l-14.9,0.6
						c0,0-8.7,24.8-10.9,30.6C245,192.4,247.6,193.1,249.8,195.7z"/>
					<path opacity="0.4" fill="#BF5587" d="M287.4,182.3c0,0-12.1-14.6-15.9-25.5l-1.2-0.1C270.2,156.7,278.4,174.2,287.4,182.3z"/>
					<path fill="#BF5587" d="M285.9,187.2c-9.4-12.5-16.4-30.1-16.4-30.1l-1-0.4C275.8,176.6,285.9,187.2,285.9,187.2z"/>
					<path opacity="0.6" fill="#BF5587" d="M283.3,194.8c0,0-13.6-23.1-14.9-38l-1.3,0.2C267,156.9,270.6,176.1,283.3,194.8z"/>
					<g>
						<path fill="#BF5587" d="M260.3,157.4l-1.1,0c0,0-5.7,21.4-9.9,31.6C252.1,183.1,257,170.4,260.3,157.4z"/>
					</g>
					<path opacity="0.6" fill="#BF5587" d="M254,195.1c0,0,6.8-23.3,7.8-37.8l1.8-0.3C263.6,157,258.6,184.9,254,195.1z"/>
					<path opacity="0.6" fill="#BF5587" d="M259.9,201.2c0,0,4.2-18.9,3.8-43.9l1.3-0.2C265,157.2,264,189.7,259.9,201.2z"/>
					<path fill="#BF5587" d="M267.8,204.4c0,0,2.2-15.8-2.7-46.9l1-0.3C266.1,157.2,271.3,189.1,267.8,204.4z"/>
					<path fill="#BF5587" d="M279,202.5c0,0-8.7-24-12.3-45.5l-1,0.3C265.8,157.3,273.4,192.6,279,202.5z"/>
				</g>
				<g>
					
						<linearGradient id="SVGID_51_" gradientUnits="userSpaceOnUse" x1="490.5262" y1="715.1295" x2="454.689" y2="733.3821" gradientTransform="matrix(-0.9547 0.2977 -0.2977 -0.9547 899.3984 712.3979)">
						<stop  offset="0" style="stop-color:#F3DACD"/>
						<stop  offset="0.4418" style="stop-color:#D9A1B0"/>
						<stop  offset="1" style="stop-color:#BF5587"/>
					</linearGradient>
					<path fill="url(#SVGID_51_)" d="M218,182c3.3,0.7,6.1,3,9.4,3.7c3.5,0.7,7.5,0,11-0.8c3.7-0.9,5.1-5,6.6-8.1
						c1.9-4,3.6-8.1,5.6-12.1c3.2-6.3,9.7-14.7,10.1-15.5l-6-4.4c-6.7,2.3-33.8,6.8-39.2,7.5c-5.4,0.7-6.6-1-9.4,13.9
						C203.2,181,215.2,181.5,218,182z"/>
					<path fill="#BF5587" d="M259.5,148.3l-1-0.2C237,172.1,236.2,182,236.2,182C242.4,166.7,259.5,148.3,259.5,148.3z"/>
					<path fill="#BF5587" d="M227.7,181.8c0,0,18.4-25.6,30-34.5l-1.2-0.8C256.6,146.5,234,169.8,227.7,181.8z"/>
					<path opacity="0.6" fill="#BF5587" d="M234.5,176.7c18.8-24.3,18.8-24.2,23.9-28.5l-1.2-0.8
						C257.2,147.3,238.4,168.9,234.5,176.7z"/>
					<path fill="#BF5587" d="M218.2,179.6c0,0,32.1-30.2,38.5-32.9l-1.1-1.2C255.6,145.6,227,169,218.2,179.6z"/>
					<path opacity="0.5" fill="#BF5587" d="M254,146.4l-0.9-0.5c-19.9,17.6-40.6,27.6-40.6,27.6C223.8,170.7,254,146.4,254,146.4z"
						/>
					<path fill="#BF5587" d="M212.8,156.4c0,0,12.9,0.2,40.9-10.9l0.8,0.4C254.5,145.9,230.9,156.1,212.8,156.4z"/>
					<path fill="#BF5587" d="M210.6,165.2c0,0,28.1-9.9,41-17.4l0.8,0.9C252.4,148.7,222,163.5,210.6,165.2z"/>
					<path opacity="0.5" fill="#BF5587" d="M212.2,160.5c0,0,28.6-5.6,42.3-14.6l-0.8-0.4C253.7,145.5,230.2,156.3,212.2,160.5z"/>
				</g>
				<g>
					
						<linearGradient id="SVGID_52_" gradientUnits="userSpaceOnUse" x1="16.1281" y1="201.7284" x2="-19.71" y2="219.9814" gradientTransform="matrix(0.9391 0.3437 -0.3437 0.9391 367.9601 -49.0145)">
						<stop  offset="0" style="stop-color:#F3DACD"/>
						<stop  offset="0.4418" style="stop-color:#D9A1B0"/>
						<stop  offset="1" style="stop-color:#BF5587"/>
					</linearGradient>
					<path fill="url(#SVGID_52_)" d="M317.8,141.1c-2.2-2.5-3-6.1-5.2-8.6c-2.3-2.7-6-4.6-9.2-6c-3.5-1.5-7.1,0.9-10.2,2.4
						c-4,2-7.8,4.2-11.8,6.2c-6.4,3.1-16.6,5.8-17.4,6.2l2.1,7.2c6.8,2.2,31,15.1,35.7,17.8c4.7,2.7,4.7,4.8,15.9-5.3
						C328.9,150.8,319.6,143.2,317.8,141.1z"/>
					<path fill="#BF5587" d="M264.4,142.6l0.7,0.7c31.6-6,38.3-13.3,38.3-13.3C289.1,138.4,264.4,142.6,264.4,142.6z"/>
					<path fill="#BF5587" d="M309.9,135.3c0,0-30.1,9.1-44.8,9.2l0.5,1.4C265.5,145.9,297.7,141,309.9,135.3z"/>
					<path opacity="0.6" fill="#BF5587" d="M301.4,135.3c-29.7,7.9-29.6,7.8-36.3,8.2l0.5,1.3C265.6,144.8,293.6,139.1,301.4,135.3z
						"/>
					<path fill="#BF5587" d="M316.2,142.8c0,0-43.8,4.5-50.5,2.7l0.1,1.6C265.8,147.2,302.7,146,316.2,142.8z"/>
					<path opacity="0.5" fill="#BF5587" d="M267.6,147.5l0.4,1c26.5-1.9,49,2.8,49,2.8C306.3,146.6,267.6,147.5,267.6,147.5z"/>
					<path fill="#BF5587" d="M306.3,164.6c0,0-10.1-8-39.1-16.2l-0.4-0.9C266.8,147.5,291.8,153.8,306.3,164.6z"/>
					<path fill="#BF5587" d="M313.4,158.9c0,0-28.4-9.2-43.1-11l0-1.2C270.2,146.7,303.4,153.3,313.4,158.9z"/>
					<path opacity="0.5" fill="#BF5587" d="M309.3,161.7c0,0-26.1-12.9-42.5-14.1l0.4,0.9C267.2,148.4,292.4,154.1,309.3,161.7z"/>
				</g>
				<g>
					
						<linearGradient id="SVGID_53_" gradientUnits="userSpaceOnUse" x1="479.8178" y1="773.6049" x2="454.6652" y2="731.7582" gradientTransform="matrix(-0.9563 0.2924 -0.2924 -0.9563 899.5202 710.3874)">
						<stop  offset="0" style="stop-color:#EFCFB0"/>
						<stop  offset="3.866111e-02" style="stop-color:#EAC6AD"/>
						<stop  offset="0.3053" style="stop-color:#C89198"/>
						<stop  offset="0.5326" style="stop-color:#B26A87"/>
						<stop  offset="0.7091" style="stop-color:#A5527C"/>
						<stop  offset="0.8133" style="stop-color:#A14978"/>
					</linearGradient>
					<path fill="url(#SVGID_53_)" d="M257.7,137.7c0,0-2.5-27.2-9.9-30.9c-7.4-3.8-10.2-3.6-13.4-2.7c-3.2,1-11.3,1.1-12.9,2.8
						c-1.6,1.6,0.5,3.8-4.2,7.6c-4.7,3.8-13.4,11.8-12,19.3c1.4,7.5,10.7,12.3,17,11.3c6.2-1,30.3,0.1,30.3,0.1L257.7,137.7z"/>
					<path opacity="0.7" fill="#A2406E" d="M256.5,137.8l1.1-0.1c-4.9-29-14.6-31.1-14.6-31.1C253.9,113.2,256.5,137.8,256.5,137.8z
						"/>
					<g>
						<path fill="#A2406E" d="M255.6,138.5l0.9-0.8c0,0-6.1-27.5-19.7-31.7C238.7,106.7,247.5,111.2,255.6,138.5z"/>
						<path fill="#A2406E" d="M236.9,106c-0.2-0.1-0.3-0.1-0.3-0.1C236.7,106,236.8,106,236.9,106z"/>
					</g>
					<path opacity="0.5" fill="#A2406E" d="M228.2,106.9c0,0,14.4,1.4,26.2,30.9l-0.9,1C253.6,138.7,245.3,115.4,228.2,106.9z"/>
					<path fill="#A2406E" d="M224.2,109.7c0,0,18,19.2,27.9,30.3l-1,0.5C251.1,140.6,230.3,118.3,224.2,109.7z"/>
					<path fill="#A2406E" d="M252.9,140.5l1.1-0.8c-0.6-0.3-16.8-25.1-28.9-31.2C225.2,108.5,237.9,117.9,252.9,140.5z"/>
					<path fill="#A2406E" d="M219.2,114.7c0,0,18.5,15.5,31,26.1l-1.1,0.8C249.1,141.7,223.6,119.9,219.2,114.7z"/>
				</g>
				<g>
					
						<linearGradient id="SVGID_54_" gradientUnits="userSpaceOnUse" x1="404.5057" y1="773.543" x2="434.8052" y2="733.9725" gradientTransform="matrix(-0.9563 0.2924 -0.2924 -0.9563 899.5202 710.3874)">
						<stop  offset="0" style="stop-color:#EAC6AC"/>
						<stop  offset="0.3381" style="stop-color:#C89198"/>
						<stop  offset="0.6342" style="stop-color:#B26A87"/>
						<stop  offset="0.8642" style="stop-color:#A6527C"/>
						<stop  offset="1" style="stop-color:#A14978"/>
					</linearGradient>
					<path fill="url(#SVGID_54_)" d="M264.9,132.7c2.9,0.7,5.6,1.7,8.1,3.3c0.4-1.2,2.1-3.4,8.8-8.5c8.8-6.7,20.9-10.8,19.3-15.2
						c-1.2-3.2-2.6-0.9-3.7-4.3c-1.1-3.5-0.9-12.3-8.4-14.2c-7.5-2-11.4-0.8-15.1-1.3c-3.7-0.5-5.8,1.8-9.5,2.2
						c-3.7,0.4-6.1,4-6.3,7.1c-0.2,2.8,3.8,25.6,4.7,30.5C263.5,132.4,264.2,132.6,264.9,132.7z"/>
					<path opacity="0.5" fill="#A2406E" d="M271.1,134.9c1-1.7,4.5-7.1,11.7-11.4c0,0,11.9-7,15.1-11.5c0,0-6.5,5.3-16,10.8
						c-5.2,3-10.2,9.1-12,11.5C270.3,134.5,270.7,134.7,271.1,134.9z"/>
					<path opacity="0.5" fill="#A2406E" d="M269.6,134.2c1.1-2.4,4.4-8.4,11.5-12.6c9-5.4,13.1-9.8,15.6-12.4c0,0-9.5,8.3-16.1,11.5
						c-5.2,2.5-10.5,10-12.4,13C268.6,133.8,269.1,134,269.6,134.2z"/>
					<path opacity="0.5" fill="#8C5E2E" d="M267.6,133.5c0.7-2.1,3.2-6.8,12.1-14c12.7-10.3,14.8-18,14.8-18s-5.4,8.7-15.8,17.1
						c-7.8,6.3-11.2,12-12.4,14.5C266.8,133.2,267.2,133.4,267.6,133.5z"/>
					<path opacity="0.5" fill="#A2406E" d="M267,133.3c0.8-2.2,4.3-10.8,10.6-17.6c7.3-7.9,13.9-19.4,13.9-19.4s-4.5,7-14.7,18.4
						c-6.8,7.6-10.5,15.3-11.6,18.1C265.8,133,266.4,133.1,267,133.3z"/>
					<path opacity="0.5" fill="#8C5E2E" d="M283.3,96.4c0,0-12.3,15.6-17.3,36.3l-1.6-0.5C264.4,132.2,272.9,105.3,283.3,96.4z"/>
					<path opacity="0.5" fill="#A2406E" d="M275.7,94c0,0-9.8,19.8-11.3,38.2l-1.6-0.5C262.8,131.8,268.5,103.8,275.7,94z"/>
					<path opacity="0.5" fill="#A2406E" d="M265.6,97.6c0,0-4.1,21.4-2.8,34.2l1.6,0.5C264.4,132.2,263.5,111.5,265.6,97.6z"/>
					<path opacity="0.5" fill="#A2406E" d="M263.2,132.3l0.3-1.3c-2.4-11.6-2.3-32.2-2.3-32.2c-1.6,9.1,1,28.9,1.6,33.3
						C263,132.3,263.1,132.3,263.2,132.3z"/>
				</g>
				<g>
					
						<linearGradient id="SVGID_55_" gradientUnits="userSpaceOnUse" x1="485.9372" y1="760.2092" x2="456.3297" y2="731.9374" gradientTransform="matrix(-0.9563 0.2924 -0.2924 -0.9563 899.5202 710.3874)">
						<stop  offset="0" style="stop-color:#F7E7D4"/>
						<stop  offset="7.054569e-02" style="stop-color:#F3DCCF"/>
						<stop  offset="0.7316" style="stop-color:#C86A91"/>
						<stop  offset="0.8094" style="stop-color:#BF5587"/>
					</linearGradient>
					<path fill="url(#SVGID_55_)" d="M218.3,145.3c8.6,4.6,22.4,6.2,32.8,1.6l5.7-7.3c0,0-14.4-13.5-18-17.1
						c-3.6-3.5-23.2-13.2-29.4,4.3C207.8,131.5,209.7,140.7,218.3,145.3z"/>
					<path fill="#BF5587" d="M254.1,139.7l1.3-0.4c0,0-15.5-12-20.2-19C235.1,120.3,241.8,130.6,254.1,139.7z"/>
					<path fill="#BF5587" d="M248.5,147l0.5-1.3c-24.5,5.2-35.1-5.6-35.1-5.6C227,152.4,248.5,147,248.5,147z"/>
					<path opacity="0.5" fill="#BF5587" d="M210.5,132.8c0,0,10.5,15.4,39.7,13.2l0.6-1.8C250.8,144.2,225.7,148.1,210.5,132.8z"/>
					<g>
						<path opacity="0.5" fill="#BF5587" d="M252.9,140.5l1.1-0.8c0,0-16.1-11.4-26-20.9C233.1,123.5,244,135.6,252.9,140.5z"/>
					</g>
					<g>
						<path fill="#BF5587" d="M252.2,143.5l0.3-2c0,0-22.2-12.5-32.2-23.7C224.3,123.9,241.9,136.3,252.2,143.5z"/>
					</g>
					<path opacity="0.5" fill="#BF5587" d="M214,122.6c0,0,13.8,10.2,36.4,19.6l-1,0.8C249.3,143,228.3,135.2,214,122.6z"/>
					<path fill="#BF5587" d="M211.3,126.9c0,0,20.3,12.2,38.1,15.6l-0.2,1.5C249.1,144,224.2,137,211.3,126.9z"/>
					<path fill="#BF5587" d="M218.8,134.6c0,0,12.9,7.9,29.6,8.4l-0.5,1.5C247.9,144.6,231.1,143.7,218.8,134.6z"/>
				</g>
				<g>
					
						<linearGradient id="SVGID_56_" gradientUnits="userSpaceOnUse" x1="428.6328" y1="765.2067" x2="439.7623" y2="738.0504" gradientTransform="matrix(-0.9563 0.2924 -0.2924 -0.9563 899.5202 710.3874)">
						<stop  offset="0" style="stop-color:#F7E7D4"/>
						<stop  offset="0.5" style="stop-color:#D9A1B0"/>
						<stop  offset="1" style="stop-color:#BF5587"/>
					</linearGradient>
					<path fill="url(#SVGID_56_)" d="M267.4,132.3c0,0,8.8-18.5,5.9-21.8c-2.9-3.3-6.3-6.9-10.2-8.3c-3.9-1.4-6.9,0.2-6.2,4.9
						c0.7,4.7,4.1,20.4,4.5,25.4L267.4,132.3z"/>
					<path opacity="0.5" fill="#BF5587" d="M263.4,132c-1-3.9-4.4-26.6-4.4-26.6c0,6.8,3.4,27.1,3.4,27.1L263.4,132z"/>
					<path opacity="0.5" fill="#BF5587" d="M271.4,110.9c0,0-2.7,17.1-5.9,21.1l0.9,0C266.4,132,271.2,119.6,271.4,110.9z"/>
					<path fill="#BF5587" d="M267.4,107c0,0-2,17.8-4,25l1,0.2C264.3,132.1,267.7,116.4,267.4,107z"/>
					<path opacity="0.5" fill="#BF5587" d="M262.3,105c0,0,1.3,22.4,0.1,26.1l0.9,0C263.3,131,263.8,114.4,262.3,105z"/>
					<path fill="#BF5587" d="M269.5,109.4c0,0-3,20-5.1,22.8l1.1-0.1C265.5,132,269.3,118,269.5,109.4z"/>
					<path fill="#BF5587" d="M272.7,114.7c0,0-4.1,13.8-6.3,17.3l1,0.4C267.4,132.3,272.1,120.2,272.7,114.7z"/>
				</g>
				<g>
					
						<linearGradient id="SVGID_57_" gradientUnits="userSpaceOnUse" x1="509.0093" y1="97.2026" x2="520.139" y2="70.0457" gradientTransform="matrix(0.4082 -0.9129 0.9129 0.4082 -1.9043 598.1846)">
						<stop  offset="0" style="stop-color:#F7E7D4"/>
						<stop  offset="0.5" style="stop-color:#D9A1B0"/>
						<stop  offset="1" style="stop-color:#BF5587"/>
					</linearGradient>
					<path fill="url(#SVGID_57_)" d="M272.2,155.7c0,0,8.2,18.8,12.6,18.8c4.4,0,9.4-0.2,13-2.3c3.6-2,4.4-5.4,0.4-7.9
						c-4-2.5-18.1-10.3-22.1-13.3L272.2,155.7z"/>
					<path opacity="0.5" fill="#BF5587" d="M275.2,152.9c3.6,1.8,22.9,14.2,22.9,14.2c-5.1-4.5-22.7-15.3-22.7-15.3L275.2,152.9z"/>
					<path opacity="0.5" fill="#BF5587" d="M285.8,172.8c0,0-11.1-13.3-12.1-18.3l-0.6,0.7C273.2,155.2,279.3,167,285.8,172.8z"/>
					<path fill="#BF5587" d="M291.3,172.3c0,0-12.1-13.2-16.2-19.4l-0.8,0.6C274.4,153.5,284,166.4,291.3,172.3z"/>
					<path opacity="0.5" fill="#BF5587" d="M296.1,169.8c0,0-17.7-13.8-19.7-17.1l-0.6,0.7C275.9,153.5,288.1,164.8,296.1,169.8z"/>
					<path fill="#BF5587" d="M288.1,172.4c0,0-13.1-15.4-13.8-18.8l-0.7,0.9C273.7,154.4,281.7,166.6,288.1,172.4z"/>
					<path fill="#BF5587" d="M282,171.3c0,0-7.7-12.2-8.9-16.2l-1,0.5C272.2,155.7,278.3,167.2,282,171.3z"/>
				</g>
			</g>
			<g>
				<path opacity="0.4" fill="#A53A62" d="M233.7,159.7c-0.1,0-0.2,0-0.3,0c-3.4-0.7-4.1-4.8-0.2-4.9
					C237.4,154.7,238.4,160.1,233.7,159.7z"/>
				<path opacity="0.8" fill="#A53A62" d="M245.2,137.4c-0.1,0-0.2,0.1-0.3,0.1c-3.4,1-5.9-2.4-2.4-4.3
					C246.2,131.2,249.6,135.6,245.2,137.4z"/>
				<path opacity="0.8" fill="#A53A62" d="M288.5,153.8c-0.1,0-0.2,0-0.3-0.1c-3.4-0.7-4.1-4.8-0.2-4.9
					C292.2,148.7,293.2,154.2,288.5,153.8z"/>
				<path opacity="0.4" fill="#A53A62" d="M247.4,121c-0.1,0-0.2,0-0.3,0c-3.4-0.7-4.1-4.8-0.2-4.9C251.1,115.9,252,121.4,247.4,121
					z"/>
				<path opacity="0.4" fill="#A53A62" d="M250.4,129.8c-0.1,0-0.2,0-0.3,0c-3.4-0.7-4.1-4.8-0.2-4.9
					C254.1,124.8,255.1,130.2,250.4,129.8z"/>
				<path opacity="0.4" fill="#A53A62" d="M276.9,121.7c-0.1,0-0.2,0-0.3-0.1c-3.4-0.7-4.1-4.8-0.2-4.9
					C280.6,116.7,281.6,122.1,276.9,121.7z"/>
				<path opacity="0.8" fill="#A53A62" d="M284.5,147.7c-0.1,0-0.2,0-0.3,0c-3.4-0.7-4.1-4.8-0.2-4.9
					C288.2,142.6,289.2,148.1,284.5,147.7z"/>
				<path opacity="0.6" fill="#A53A62" d="M264.4,168.8c-0.1,0-0.2,0-0.3-0.1c-3.4-0.7-4.1-4.8-0.2-4.9
					C268.1,163.8,269.1,169.2,264.4,168.8z"/>
				<path opacity="0.2" fill="#A53A62" d="M243.7,168.3c-0.1,0-0.2,0.1-0.3,0.1c-3.4,0.8-5.7-2.7-2.2-4.4
					C245,162.1,248.1,166.7,243.7,168.3z"/>
				<path opacity="0.2" fill="#A53A62" d="M231.5,138.8c-0.1,0-0.2,0.1-0.3,0.1c-3.4,0.8-5.7-2.7-2.2-4.4
					C232.9,132.7,236,137.3,231.5,138.8z"/>
				<path opacity="0.7" fill="#A53A62" d="M266.7,128.1c-0.1,0-0.2,0.1-0.3,0.1c-3.4,0.8-5.7-2.7-2.2-4.4
					C268,122,271.1,126.5,266.7,128.1z"/>
				<path opacity="0.5" fill="#A53A62" d="M261.8,176c-0.1,0-0.2,0.1-0.3,0.1c-3.4,0.8-5.7-2.7-2.2-4.4
					C263.1,169.9,266.2,174.5,261.8,176z"/>
				<path opacity="0.8" fill="#A53A62" d="M274.7,166.8c-0.1,0-0.2,0.1-0.3,0.1c-3.4,0.8-5.7-2.7-2.2-4.4
					C276,160.7,279.1,165.3,274.7,166.8z"/>
				<path opacity="0.4" fill="#A53A62" d="M241.4,159.9c-0.1,0-0.2,0-0.2-0.1c-2.4-0.7-3-4-0.3-3.9
					C243.8,155.9,244.6,160.4,241.4,159.9z"/>
				<path opacity="0.4" fill="#A6674A" d="M275.3,124.1c-0.1,0-0.1,0-0.2,0c-1.8-0.6-2.3-3.1-0.3-3
					C277.1,121.2,277.8,124.5,275.3,124.1z"/>
				<path opacity="0.4" fill="#A53A62" d="M237,165.8c-0.1,0-0.1,0-0.2,0c-1.8-0.6-2.3-3.1-0.3-3C238.8,162.8,239.5,166.2,237,165.8
					z"/>
				<path opacity="0.8" fill="#A53A62" d="M240.1,142.5c-0.1,0-0.1,0-0.2,0c-1.8-0.6-2.3-3.1-0.3-3
					C241.8,139.5,242.5,142.9,240.1,142.5z"/>
				<path opacity="0.4" fill="#A53A62" d="M257.8,171c-0.1,0-0.1,0-0.2,0c-1.8-0.6-2.3-3.1-0.3-3C259.6,168,260.2,171.4,257.8,171z"
					/>
				<path opacity="0.4" fill="#A53A62" d="M289.1,159.3c-0.1,0-0.1,0-0.2,0c-1.8-0.6-2.3-3.1-0.3-3
					C290.8,156.3,291.5,159.7,289.1,159.3z"/>
				<path opacity="0.2" fill="#A53A62" d="M240.5,175c0,0.1-0.1,0.1-0.1,0.2c-1.1,1.5-3.6,1.2-3-0.7
					C238.2,172.5,241.7,172.8,240.5,175z"/>
				<path opacity="0.2" fill="#A53A62" d="M281.7,181.6c0,0.1-0.1,0.1-0.1,0.1c-1.1,1.5-3.6,1.2-3-0.7
					C279.4,179.1,282.8,179.5,281.7,181.6z"/>
				<path opacity="0.2" fill="#A53A62" d="M263.7,178.7c0,0.1-0.1,0.1-0.1,0.2c-1.1,1.5-3.6,1.2-3-0.7
					C261.4,176.2,264.9,176.6,263.7,178.7z"/>
				<path opacity="0.2" fill="#A53A62" d="M263.9,190.8c0,0.1-0.1,0.1-0.1,0.1c-1.1,1.5-3.6,1.2-3-0.7
					C261.6,188.2,265,188.6,263.9,190.8z"/>
				<path opacity="0.8" fill="#A53A62" d="M244.1,153.6c0,0.1-0.1,0.1-0.1,0.2c-1.1,1.5-3.6,1.2-3-0.7
					C241.8,151.1,245.3,151.5,244.1,153.6z"/>
				<path opacity="0.2" fill="#A53A62" d="M289.3,107.2c0,0.1-0.1,0.1-0.1,0.1c-1.1,1.5-3.6,1.2-3-0.7
					C287,104.7,290.4,105,289.3,107.2z"/>
				<path opacity="0.2" fill="#A53A62" d="M250,112.2c0,0.1-0.1,0.1-0.1,0.2c-1.1,1.5-3.6,1.2-3-0.7
					C247.7,109.7,251.1,110.1,250,112.2z"/>
				<path opacity="0.2" fill="#A53A62" d="M246,172.3c0,0.1-0.1,0.1-0.1,0.2c-1.1,1.5-3.6,1.2-3-0.7
					C243.6,169.7,247.1,170.1,246,172.3z"/>
				<path opacity="0.2" fill="#A53A62" d="M230.2,163c0,0-0.1,0.1-0.1,0.2c-1.1,1.5-3.6,1.2-3-0.7
					C227.9,160.4,231.4,160.8,230.2,163z"/>
				<path opacity="0.5" fill="#A53A62" d="M242.5,145.9c0,0-0.1,0.1-0.1,0.1c-1.1,1.5-3.6,1.2-3-0.7
					C240.2,143.4,243.6,143.8,242.5,145.9z"/>
				<path opacity="0.5" fill="#A53A62" d="M237.4,143c0,0-0.1,0.1-0.1,0.2c-1.1,1.5-3.6,1.2-3-0.7
					C235.1,140.4,238.5,140.8,237.4,143z"/>
				<path opacity="0.2" fill="#A53A62" d="M231.6,143.7c0,0.1-0.1,0.1-0.1,0.2c-1.1,1.5-3.6,1.2-3-0.7
					C229.3,141.1,232.8,141.5,231.6,143.7z"/>
				<path opacity="0.4" fill="#A53A62" d="M269.3,122c0,0.1-0.1,0.1-0.1,0.2c-1.1,1.5-3.6,1.2-3-0.7
					C267,119.5,270.5,119.9,269.3,122z"/>
				<path opacity="0.4" fill="#A53A62" d="M236.7,130.6c0,0.1-0.1,0.1-0.1,0.2c-1.1,1.5-3.6,1.2-3-0.7
					C234.4,128.1,237.8,128.4,236.7,130.6z"/>
				<path opacity="0.2" fill="#A53A62" d="M267.8,113.1c0,0.1,0,0.1,0.1,0.2c0.6,1.8-1.3,3.6-2.3,1.9
					C264.3,113.4,266.7,110.9,267.8,113.1z"/>
				<path opacity="0.6" fill="#A53A62" d="M264.1,121.9c0,0.1-0.1,0.1-0.1,0.2c-1.1,1.5-3.6,1.2-3-0.7
					C261.8,119.4,265.2,119.7,264.1,121.9z"/>
				<path opacity="0.5" fill="#A53A62" d="M268.4,171c0,0.1-0.1,0.1-0.1,0.1c-1.1,1.5-3.6,1.2-3-0.7
					C266.1,168.5,269.5,168.9,268.4,171z"/>
				<path opacity="0.2" fill="#A53A62" d="M283.9,173.1c0,0.1-0.1,0.1-0.1,0.2c-1.1,1.5-3.6,1.2-3-0.7
					C281.6,170.5,285.1,170.9,283.9,173.1z"/>
				<path opacity="0.2" fill="#A53A62" d="M253.1,180c0,0.1-0.1,0.1-0.1,0.2c-1.1,1.5-3.6,1.2-3-0.7
					C250.9,177.5,254.3,177.8,253.1,180z"/>
				<path opacity="0.2" fill="#A53A62" d="M302.6,149.6c0,0.1-0.1,0.1-0.1,0.2c-1.1,1.5-3.6,1.2-3-0.7
					C300.3,147,303.7,147.4,302.6,149.6z"/>
				<path opacity="0.4" fill="#A53A62" d="M294.3,146.5c0,0.1-0.1,0.1-0.1,0.2c-1.1,1.5-3.6,1.2-3-0.7
					C292,144,295.5,144.4,294.3,146.5z"/>
				<path opacity="0.4" fill="#A53A62" d="M293,142c0,0.1-0.1,0.1-0.1,0.1c-1.1,1.5-3.6,1.2-3-0.7C290.7,139.5,294.1,139.9,293,142z
					"/>
				<path opacity="0.2" fill="#A53A62" d="M284.7,114.9c0,0.1-0.1,0.1-0.1,0.2c-1.1,1.5-3.6,1.2-3-0.7
					C282.4,112.3,285.8,112.7,284.7,114.9z"/>
				<path opacity="0.2" fill="#A53A62" d="M280.4,126c0,0.1-0.1,0.1-0.1,0.2c-1.1,1.5-3.6,1.2-3-0.7
					C278.1,123.4,281.5,123.8,280.4,126z"/>
				<path opacity="0.2" fill="#A53A62" d="M229.1,152c0,0.1,0,0.1,0.1,0.2c0.5,1.8-1.4,3.6-2.4,1.8
					C225.7,152.2,228.1,149.7,229.1,152z"/>
				<path opacity="0.2" fill="#A53A62" d="M223.9,129.7c0,0.1,0,0.1,0.1,0.2c0.5,1.8-1.4,3.6-2.4,1.8
					C220.5,129.8,223,127.4,223.9,129.7z"/>
				<path opacity="0.3" fill="#A53A62" d="M295.1,155c0,0.1,0,0.1,0.1,0.2c0.5,1.8-1.4,3.6-2.4,1.9
					C291.7,155.1,294.1,152.7,295.1,155z"/>
				<path opacity="0.2" fill="#A53A62" d="M278.8,108.6c0,0.1,0,0.1,0.1,0.2c0.6,2-1.6,4.1-2.7,2.1
					C274.9,108.8,277.7,106.1,278.8,108.6z"/>
				<path opacity="0.2" fill="#A53A62" d="M285.7,154c0,0.1,0,0.1,0.1,0.2c0.6,2-1.6,4.1-2.7,2.1C281.8,154.2,284.6,151.4,285.7,154
					z"/>
				<path opacity="0.2" fill="#A53A62" d="M270,97.3c0,0.1,0,0.1,0.1,0.2c0.5,1.8-1.4,3.6-2.4,1.9C266.5,97.4,269,95,270,97.3z"/>
				<path opacity="0.2" fill="#A53A62" d="M240.8,109.3c0,0.1,0,0.1,0.1,0.2c0.5,1.8-1.4,3.6-2.4,1.8
					C237.4,109.5,239.9,107,240.8,109.3z"/>
				<path opacity="0.2" fill="#A53A62" d="M241.1,115.9c0,0.1,0,0.1,0.1,0.2c0.5,1.8-1.4,3.6-2.4,1.9
					C237.7,116,240.1,113.6,241.1,115.9z"/>
				<path opacity="0.8" fill="#A53A62" d="M239,151.4c0,0.1-0.1,0.1-0.1,0.2c-1.1,1.5-3.6,1.2-3-0.7
					C236.7,148.8,240.2,149.2,239,151.4z"/>
				<path opacity="0.5" fill="#A53A62" d="M274.3,173c-0.1,0-0.1,0.1-0.2,0.1c-1.7,0.7-3.7-0.9-2.2-2.1
					C273.6,169.6,276.4,171.7,274.3,173z"/>
				<path opacity="0.8" fill="#A53A62" d="M276,124.2c0,0.1-0.1,0.1-0.1,0.1c-1.1,1.5-3.6,1.2-3-0.7
					C273.7,121.7,277.1,122,276,124.2z"/>
				<path opacity="0.8" fill="#A53A62" d="M247.4,159.8c0,0.1-0.1,0.1-0.1,0.1c-1.1,1.5-3.6,1.2-3-0.7
					C245.1,157.3,248.5,157.6,247.4,159.8z"/>
				<path opacity="0.5" fill="#A53A62" d="M284.9,121.5c0,0.1-0.1,0.1-0.1,0.1c-1.1,1.5-3.6,1.2-3-0.7
					C282.6,118.9,286.1,119.3,284.9,121.5z"/>
				<path opacity="0.5" fill="#A53A62" d="M254.4,122.1c0,0.1-0.1,0.1-0.1,0.1c-1.1,1.5-3.6,1.2-3-0.7
					C252.1,119.5,255.5,119.9,254.4,122.1z"/>
				<path opacity="0.5" fill="#A53A62" d="M276.2,127.3c0,0.1-0.1,0.1-0.1,0.2c-1.1,1.5-3.6,1.2-3-0.7
					C273.9,124.7,277.4,125.1,276.2,127.3z"/>
				<path opacity="0.8" fill="#A53A62" d="M277.9,129.2c0,0.1-0.1,0.1-0.1,0.1c-1.1,1.5-3.6,1.2-3-0.7
					C275.6,126.7,279,127,277.9,129.2z"/>
				<path opacity="0.5" fill="#A53A62" d="M246.2,122.8c0,0-0.1,0.1-0.1,0.1c-1.1,1.5-3.6,1.2-3-0.7
					C243.9,120.3,247.4,120.7,246.2,122.8z"/>
			</g>
			<g>
				
					<radialGradient id="SVGID_58_" cx="443.0046" cy="725.5778" r="15.0252" gradientTransform="matrix(-0.9563 0.2924 -0.2924 -0.9563 899.5202 710.3874)" gradientUnits="userSpaceOnUse">
					<stop  offset="0" style="stop-color:#5F4E4F"/>
					<stop  offset="0.2587" style="stop-color:#514044"/>
					<stop  offset="0.7879" style="stop-color:#302229"/>
					<stop  offset="1" style="stop-color:#23161D"/>
				</radialGradient>
				<path fill="url(#SVGID_58_)" d="M249.3,150.4c-2.4-7.9,2-16.3,10-18.8c7.9-2.4,16.3,2,18.8,10c2.4,7.9-2,16.3-10,18.8
					C260.2,162.8,251.8,158.4,249.3,150.4z"/>
				<path fill="#040506" d="M267.6,160.1c1.4,0.6,1.9,4.5,0.2,4.3c-1.6-0.1-2.4-3.9-0.8-4.4C267.2,160,267.4,160,267.6,160.1z"/>
				<path fill="#040506" d="M280.4,153.9c-1.2,1-4.9-0.5-3.9-1.9c0.9-1.4,4.6-0.2,4.2,1.4C280.7,153.6,280.6,153.7,280.4,153.9z"/>
				<path fill="#040506" d="M261.3,165.5c-2.5-0.1-1.7-5.9,0.5-6C263.5,159.5,263.3,165.6,261.3,165.5z"/>
				<path fill="#271C23" d="M276.5,149.6c-0.1-2.1,4.9-1.7,5.1,0.1C281.7,151.2,276.5,151.3,276.5,149.6z"/>
				<path fill="#040506" d="M276.8,160.8c-1.8,1.8-5.5-2.8-4-4.4C273.9,155,278.2,159.4,276.8,160.8z"/>
				<path fill="#040506" d="M258.7,162.2c-0.5,0.8-0.1,3.1-1.5,2.8c-1.4-0.2,0-2.1,0.2-2.9c0.2-0.9,0.5-3,2-2.3
					C260.8,160.5,259.2,161.5,258.7,162.2z"/>
				<path fill="#040506" d="M277.3,155.6c-0.8-0.5-3.1,0.1-2.9-1.4c0.2-1.4,2.1-0.1,2.9,0c0.9,0.2,3,0.3,2.4,1.8
					C279.2,157.6,278,156,277.3,155.6z"/>
				<path fill="#31252D" d="M270,160.7c0.2,0.9,2.1,2.2,0.9,3.1c-1.2,0.8-1.5-1.5-1.9-2.2c-0.5-0.8-1.8-2.4-0.2-3
					C270.3,158,269.9,159.9,270,160.7z"/>
				<path fill="#271C23" d="M265.4,165.3c-1.8,0.9-2.5-3.5-1.5-4.3C265.4,159.9,266.8,164.7,265.4,165.3z"/>
				<path fill="#040506" d="M273.6,162.3c-1.4,1.5-3.5-2.5-2.9-3.5C271.8,157.1,274.6,161.2,273.6,162.3z"/>
				<path fill="#271C23" d="M249.1,144.7c-1.1,1.1-4.9,0-4.1-1.5c0.8-1.5,4.6-0.7,4.3,1C249.3,144.4,249.2,144.6,249.1,144.7z"/>
				<path fill="#31252D" d="M250,159.1c-0.4-1.5,2.3-4.3,3.3-2.8c0.9,1.4-1.6,4.4-2.9,3.3C250.2,159.5,250.1,159.3,250,159.1z"/>
				<path fill="#271C23" d="M247,136.6c1-2.1,5.6,0.7,4.9,2.5C251.3,140.7,246.2,138.3,247,136.6z"/>
				<path fill="#271C23" d="M255.3,156.5c2,0.8-0.3,5.2-2.1,4.6C251.8,160.7,253.8,155.9,255.3,156.5z"/>
				<path fill="#271C23" d="M245.3,153.7c-1-2.3,4.7-4,5.7-2C251.7,153.3,246,155.5,245.3,153.7z"/>
				<path fill="#040506" d="M251.4,137.1c-0.5-0.8-2.8-1.3-2-2.5c0.8-1.2,1.9,0.8,2.6,1.3c0.7,0.5,2.5,1.6,1.4,2.7
					C252.2,139.7,251.8,137.8,251.4,137.1z"/>
				<path fill="#040506" d="M249.6,155.6c0.7-0.6,1.1-2.9,2.4-2.2c1.2,0.7-0.7,2-1.1,2.6c-0.5,0.7-1.4,2.6-2.6,1.5
					C247.1,156.6,249,156.1,249.6,155.6z"/>
				<path fill="#040506" d="M247.7,148.1c-0.9-0.2-2.9,1.1-3.2-0.4c-0.3-1.4,1.9-0.8,2.7-0.9c0.9-0.1,2.9-0.7,2.9,1
					C250.1,149.4,248.5,148.2,247.7,148.1z"/>
				<path fill="#040506" d="M245.3,140.8c-0.1-2.1,4.2-1,4.5,0.3C250.4,143,245.4,142.3,245.3,140.8z"/>
				<path fill="#040506" d="M245.2,150.6c-0.8-1.9,3.6-2.3,4.4-1.2C250.7,151,245.8,152,245.2,150.6z"/>
				<path fill="#040506" d="M273.5,138.6c0-1.5,3.5-3.4,4-1.8c0.5,1.6-2.8,3.7-3.8,2.3C273.5,139,273.5,138.8,273.5,138.6z"/>
				<path fill="#040506" d="M280.8,142.4c0.9,2.4-4.9,3.8-5.7,1.7C274.4,142.6,280.2,140.6,280.8,142.4z"/>
				<path fill="#040506" d="M278.7,146.1c0.9,0.2,2.9-1.1,3.2,0.4c0.3,1.4-2,0.8-2.7,0.9c-0.9,0.1-2.9,0.7-2.9-1
					C276.3,144.8,277.9,145.9,278.7,146.1z"/>
				<path fill="#040506" d="M257.9,129.1c1.5,0.3,2.8,4,1,4.2c-1.6,0.2-3.2-3.4-1.6-4.1C257.5,129.1,257.7,129.1,257.9,129.1z"/>
				<path fill="#271C23" d="M256.6,134.4c-1.6,1.4-4.5-2.7-3.2-4C254.5,129.3,257.9,133.2,256.6,134.4z"/>
				<path fill="#271C23" d="M264.9,127.6c2.2,0.2,1.2,5.4-0.7,5.3C262.6,132.9,263.1,127.4,264.9,127.6z"/>
				<path fill="#040506" d="M262.2,130.1c0.2,0.9,2.1,2.3,0.8,3.1c-1.2,0.8-1.4-1.5-1.8-2.2c-0.4-0.8-1.7-2.5-0.2-3
					C262.5,127.4,262,129.3,262.2,130.1z"/>
				<path fill="#040506" d="M269.5,132.8c0.6-0.7,0.3-3.1,1.8-2.7c1.4,0.4-0.2,2.1-0.4,2.8c-0.3,0.8-0.7,2.9-2.2,2.1
					C267.3,134.3,269,133.4,269.5,132.8z"/>
				<path fill="#040506" d="M268.5,129c2.1,0.1,0.4,4.3-0.9,4.5C265.6,133.7,267,128.9,268.5,129z"/>
				<path fill="#31252D" d="M252.7,135.5c-0.4-0.8-2.7-1.6-1.7-2.7c0.9-1.1,1.8,1,2.4,1.6c0.7,0.6,2.4,1.8,1.1,2.8
					C253.2,138.2,253.1,136.2,252.7,135.5z"/>
				<path fill="#271C23" d="M273.2,136.1c0.8-0.5,1.3-2.8,2.5-2c1.2,0.8-0.8,1.9-1.3,2.6c-0.5,0.7-1.6,2.5-2.7,1.3
					C270.6,136.8,272.5,136.5,273.2,136.1z"/>
				<path fill="#31252D" d="M279.2,138.7c1.5,1.4-2.3,3.6-3.4,3C274.1,140.7,278.1,137.7,279.2,138.7z"/>
				<path fill="#040506" d="M273.4,132.2c1.9,0.8-1,4.2-2.2,3.9C269.2,135.7,272,131.6,273.4,132.2z"/>
				<g>
					<path fill="#040506" d="M267.2,154.1c-0.4-0.2-0.8-0.3-1.3-0.2c-2.2,0.6-1.8,4.1,0.5,4.3C269.1,158.4,268.8,155.1,267.2,154.1z
						"/>
					<path fill="#040506" d="M259.5,145.7c-0.4-0.2-0.8-0.2-1.3-0.1c-2.2,0.6-2,3.6,0.3,3.7C261.2,149.3,261,146.5,259.5,145.7z"/>
					<path fill="#040506" d="M256.5,135.4c-2.2,0.6-2,3.6,0.3,3.7c2.7,0.1,2.5-2.8,1-3.6C257.5,135.4,257,135.3,256.5,135.4z"/>
					<path fill="#040506" d="M253,138.1c1.9,0.1,1.7-1.9,0.7-2.4c-0.2-0.1-0.5-0.2-0.9-0.1C251.3,136,251.5,138,253,138.1z"/>
					<path fill="#040506" d="M261.9,154.7c-2.8-1.3-4.6,2.6-1.8,3.7C262.7,159.4,264.7,156,261.9,154.7z"/>
					<path fill="#040506" d="M252.5,147.4c2.6,1,4.6-2.4,1.8-3.7C251.5,142.4,249.7,146.3,252.5,147.4z"/>
					<path fill="#040506" d="M274.6,143.8c2.6,1,4.6-2.4,1.8-3.7C273.6,138.8,271.8,142.7,274.6,143.8z"/>
					<path fill="#040506" d="M265.1,136.1c2.6,1,4.6-2.4,1.8-3.7C264.1,131.2,262.3,135.1,265.1,136.1z"/>
					<path fill="#040506" d="M272,142.9c-2.8-1.3-4.6,2.6-1.8,3.7C272.8,147.5,274.7,144.2,272,142.9z"/>
					<path fill="#040506" d="M261.5,145.3c2.6,1,4.6-2.4,1.8-3.7C260.5,140.4,258.8,144.3,261.5,145.3z"/>
					<path fill="#040506" d="M263.2,153.4c2.8,0.2,2.7-2.6,1.3-3.6c-0.6-0.4-1.7-0.5-2.6,0.4C260.7,151.5,261.6,153.3,263.2,153.4z"
						/>
					<path fill="#040506" d="M274,145.3c-1.2,1.2-0.3,3.1,1.3,3.2c2.8,0.2,2.7-2.6,1.3-3.6C276,144.4,274.9,144.4,274,145.3z"/>
					<path fill="#040506" d="M256.4,152.6c-2.3,0.4-1.6,3.8,0.5,3.4C259.4,155.3,258.4,152.2,256.4,152.6z"/>
					<path fill="#040506" d="M257.7,141.5c-2.3,0.4-1.6,3.8,0.5,3.4C260.7,144.3,259.8,141.1,257.7,141.5z"/>
					<path fill="#040506" d="M270.7,136.9c2.4-0.6,1.5-3.7-0.5-3.4C267.9,134,268.7,137.4,270.7,136.9z"/>
					<path fill="#040506" d="M270.5,138.7c-2.3,0.4-1.6,3.8,0.5,3.4C273.5,141.5,272.5,138.4,270.5,138.7z"/>
					<path fill="#040506" d="M258.8,150.2c-1.6,0.5-1,2.2,0,2.9c0.7,0.5,1.5,0.6,1.9-0.7C260.8,151.5,259.9,149.8,258.8,150.2z"/>
					<path fill="#040506" d="M267.7,136.6c-1.2,0.4-0.8,1.7,0,2.3c0.5,0.4,1.2,0.5,1.5-0.5C269.3,137.6,268.6,136.3,267.7,136.6z"/>
					<path fill="#040506" d="M251,140.9c1-0.2,2.1-1.7,1.2-2.6c-1.1-1.2-2.4,0.1-2.6,1.3C249.4,140.4,249.7,141.2,251,140.9z"/>
					<path fill="#040506" d="M254.2,154.7c0.2-1-0.7-2.6-1.8-2.3c-1.6,0.5-1,2.2,0,2.9C253,155.9,253.9,156,254.2,154.7z"/>
					<path fill="#040506" d="M273.5,139c0.7,0.5,1.5,0.6,1.9-0.7c0.2-1-0.7-2.6-1.8-2.3C271.9,136.5,272.5,138.2,273.5,139z"/>
					<path fill="#040506" d="M262.5,159.3c-0.2,1.6,1.6,1.8,2.7,1.2c0.8-0.4,1.2-1.2,0.2-2C264.5,157.9,262.6,158,262.5,159.3z"/>
					<path fill="#040506" d="M250.4,144.4c0.8-0.6,1.1-2.5-0.1-2.9c-1.6-0.5-2.1,1.2-1.8,2.3C248.7,144.7,249.4,145.2,250.4,144.4z"
						/>
					<path fill="#040506" d="M264.9,147.5c0.1-1.6-1.7-1.6-2.7-1c-0.7,0.5-1.1,1.2,0,2C263,149.1,264.9,148.8,264.9,147.5z"/>
					<path fill="#040506" d="M269.5,156.9c-0.7,0.5-1.1,1.3,0,2c0.9,0.6,2.7,0.3,2.8-1C272.3,156.3,270.5,156.3,269.5,156.9z"/>
					<path fill="#040506" d="M268.2,152.9c0.9-0.5,1.4-2.3,0.3-2.9c-1.5-0.7-2.2,0.9-2.1,2.1C266.5,153,267,153.6,268.2,152.9z"/>
					<path fill="#040506" d="M253.4,151.9c2.1,1.3,4.7-2,2.3-3.4C253.4,147.1,250.9,150.4,253.4,151.9z"/>
					<path fill="#040506" d="M271.1,152.3c-1.7-0.3-2.8,1.5-1.6,2.8c0.5,0.6,1.7,0.8,2.3,0.4C273.2,154.7,272.7,152.6,271.1,152.3z"
						/>
					<path fill="#040506" d="M254.8,139.3c-2.2-0.6-3.6,2.6-1.3,3.4C256,143.4,257.4,139.9,254.8,139.3z"/>
					<path fill="#040506" d="M265.1,136.8c-2.2-0.6-3.6,2.6-1.3,3.4C266.4,140.9,267.7,137.5,265.1,136.8z"/>
					<path fill="#040506" d="M260.6,136.9c2.5,0.8,3.9-2.7,1.3-3.3C259.6,133,258.2,136.2,260.6,136.9z"/>
					<path fill="#040506" d="M260.7,137.7c-0.2,0-0.4,0.1-0.6,0.2c-1.6,0.9-1.8,3.2,0.4,3.4C262.8,141.5,262.7,137.3,260.7,137.7z"
						/>
					<path fill="#040506" d="M266.4,144.6c-1.5,0.1-1.2,2.9-0.5,3.7c0.4,0.5,1,0.7,1.6,0.4C269.1,147.9,268,144.5,266.4,144.6z"/>
					<path fill="#040506" d="M250.4,148.9c1.3-0.7,0.4-3.6-1-3.5c-1.3,0.1-1.1,2.5-0.5,3.2C249.3,149,249.8,149.2,250.4,148.9z"/>
					<path fill="#040506" d="M265.4,142.9c0.1,0.5,0.4,1,1.1,1c1.5,0.1,2.2-2.9,1-3.5C266.3,139.8,265.3,142,265.4,142.9z"/>
					<path fill="#040506" d="M272.9,155.4c-0.1,0.5,0.1,1,0.7,1.3c1.4,0.6,3-2.1,2-3.1C274.7,152.7,273,154.4,272.9,155.4z"/>
					<path fill="#040506" d="M274.9,151.7c0.1,0.5,0.5,0.9,1.1,0.9c1.5,0,1.9-3.1,0.6-3.6C275.4,148.6,274.6,150.8,274.9,151.7z"/>
					<path fill="#040506" d="M259.3,159.4c-0.4,0.9,1.3,1.7,2,1.6c0.4-0.1,0.7-0.3,0.8-0.8C262.1,159,259.7,158.4,259.3,159.4z"/>
					<path fill="#040506" d="M255.9,156.5c-1,0.8,0.5,2.7,1.4,2.9c0.5,0.1,1,0,1.4-0.5C259.4,157.6,257,155.7,255.9,156.5z"/>
					<path fill="#040506" d="M259.3,133.1c-0.3-1.3-2.7-0.6-3.2,0.1c-0.3,0.4-0.4,0.9-0.1,1.5C256.9,135.9,259.7,134.5,259.3,133.1z
						"/>
					<path fill="#040506" d="M272,147.6c-2.8-0.5-3.6,3-1,3.9C273.5,152.4,275.3,148.2,272,147.6z"/>
					<path fill="#040506" d="M251.1,149.7c-1.8-0.7-2.5,2.2-0.9,2.8C251.9,153.3,252.6,150.4,251.1,149.7z"/>
					<path fill="#040506" d="M255,134.2c-1-0.4-1.4,1.2-0.5,1.6C255.5,136.2,255.9,134.6,255,134.2z"/>
					<path fill="#040506" d="M263,131.8c-1-0.4-1.4,1.2-0.5,1.6C263.4,133.7,263.8,132.2,263,131.8z"/>
					<path fill="#040506" d="M273.3,153.1c1,0.4,1.4-1.2,0.5-1.6C272.8,151.1,272.4,152.7,273.3,153.1z"/>
					<path fill="#040506" d="M254.8,155.7c-1-0.4-1.4,1.2-0.5,1.6C255.2,157.7,255.7,156.1,254.8,155.7z"/>
					<path fill="#040506" d="M267.1,160.3c1,0.4,1.4-1.2,0.5-1.6C266.7,158.4,266.3,160,267.1,160.3z"/>
				</g>
			</g>
		</g>
	</g>
	<g>
		<path fill="#BC6C91" d="M74.5,118l-2.6,5.9c1.2-2.1,2.8-4.1,4.9-6c2.1-2,4.4-3.8,6.9-5.4c2.6-1.6,5.2-2.9,8-3.9
			c2.7-0.9,5.5-1.3,8.2-1.2c2.2,0.2,4.5,0.8,6.7,1.8c2.2,1,4,2.5,5.3,4.4c1.3,1.9,1.9,4.3,1.9,7.2c0,2.9-1,6.3-3.1,10.3
			c-2.9,5.7-5.8,11.1-8.7,16.3c-2.9,5.2-5.6,11-8,17.4c-1.4,3.6-2.1,6.2-2.3,7.8c-0.2,1.6,0,2.4,0.6,2.4c0.6,0,1.5-0.6,2.7-1.7
			c1.2-1.1,2.6-2.6,4.1-4.5c4.5-5.5,8.2-10.7,11.2-15.6c3-4.9,5.4-8.6,7.1-11.2c1.2-1.9,2.5-2.7,3.9-2.4c1.4,0.3,2.5,1.1,3.5,2.6
			c0.9,1.5,1.5,3.3,1.8,5.4c0.3,2.1,0,4.1-0.9,5.8c-1.9,3.6-4.2,7.8-6.9,12.6c-2.7,4.8-6,9.2-9.8,13.2c-3.8,4-8,7.2-12.7,9.4
			c-4.7,2.2-9.9,2.6-15.6,1c-3.4-0.9-5.7-2.8-6.7-5.9s-1.2-6-0.5-8.7c0.5-2.1,1.4-4.8,2.6-8.2c1.2-3.4,2.6-7.1,4.2-10.9
			c1.6-3.9,3.3-7.7,5-11.4c1.7-3.8,3.3-7.1,4.9-10c1.5-3.3,2.1-5.8,1.7-7.7c-0.4-1.9-1.4-3.1-3-3.6s-3.5-0.3-5.8,0.5
			c-2.3,0.9-4.5,2.5-6.6,4.9c-0.9,1-2,2.4-3.3,4.2c-1.4,1.8-2.8,3.7-4.2,5.7c-1.5,2-2.9,3.8-4.2,5.5c-1.4,1.7-2.4,2.8-3.1,3.3
			c-4.5,9.1-7.8,16.3-10,21.5c-2.2,5.2-3.9,9.3-5.1,12.2c-0.5,1.4-0.9,2.5-1.3,3.3c-0.3,0.9-0.6,1.5-0.9,2.1s-0.6,0.9-0.9,1.2
			c-0.3,0.3-0.8,0.6-1.3,1.2c-2.1,1.5-4,2.2-5.8,2.1c-1.8-0.2-3.2-0.8-4.2-1.8c-1-1-1.7-2.4-1.9-4.2c-0.3-1.8,0-3.6,0.9-5.5
			c2.1-4.3,4.2-9,6.3-14.1c2.1-5.1,4.3-10.5,6.6-15.9c2.2-5.5,4.5-11.1,6.7-16.7c2.2-5.7,4.5-11.2,6.7-16.7c1.2-2.7,3-4.8,5.3-6.2
			c2.3-1.4,4.6-2.1,6.8-2.1c2.2,0,4,0.6,5.4,1.8c1.4,1.2,1.7,3,1,5.4L74.5,118z M68.8,116.9l-0.3,0.3c-0.2,0-0.3,0.2-0.5,0.5l-1,1
			c-0.5,1-1.2,2.1-1.9,3.2c-0.8,1.1-1.6,2.4-2.4,4l-2.1,4.6c-0.3,0.5-0.6,1.1-0.8,1.8c-0.2,0.7-0.4,1.3-0.8,1.8v1.5
			c-0.3,0.7-0.5,1.1-0.5,1.3c-0.2,0.2-0.3,0.4-0.3,0.8c0.2,0,0.3-0.1,0.3-0.3v-0.3l0.8-1.3c0.3-0.2,0.5-0.4,0.5-0.8
			c0-0.3,0.1-0.6,0.3-0.8c0.2-0.3,0.4-0.9,0.6-1.5c0.3-0.7,0.6-1.4,0.9-2.1c0.7-1,1.4-2.3,2.1-3.9c0.3-0.9,0.7-1.6,1-2.2
			c0.3-0.6,0.7-1.2,1-1.9c1-1.2,1.7-2.3,2.1-3.3c-0.2-0.2,0-0.7,0.5-1.5c0.3,0,0.5-0.1,0.4-0.3c-0.1-0.2,0-0.3,0.1-0.3V116.9z
			 M59.6,125.4c-0.2,0.5-0.2,1-0.1,1.4c0.1,0.4,0.1,0.8,0.1,1.2c0.2-0.7,0.7-1.6,1.5-2.8c0.2-0.5,0.4-1,0.6-1.4
			c0.3-0.4,0.5-0.8,0.6-1.2c0.2-0.3,0.3-0.7,0.3-1.2c0-0.4,0.2-0.7,0.5-0.9c0.3-0.9,0.7-1.4,1-1.5c-0.2,0-0.3-0.1-0.3-0.3
			c-0.7,0.7-1,1.3-1,1.8c-0.7,0.2-1.1,0.8-1.3,1.8c-0.5,0.5-0.9,1.3-1.3,2.3c-0.3,0.2-0.5,0.3-0.5,0.5
			C59.8,125.3,59.8,125.4,59.6,125.4z M64.2,118.2h0.3c-0.2,0-0.3,0.1-0.5,0.3L64.2,118.2z M65.2,132.9c0,0.2-0.1,0.3-0.3,0.5
			c0.3-0.3,0.6-0.8,0.9-1.3s0.6-0.9,0.9-1.3l-1.3,1.5c0,0.2,0,0.3-0.1,0.3C65.3,132.6,65.2,132.7,65.2,132.9z M75.5,127
			c-0.2,0-0.3,0.1-0.5,0.3c-0.7,0.3-1.1,0.7-1.3,1l-1.3,1l-4.9,5.1l-1.8,3.9l0.8-1c1.2-1.2,2.3-2.6,3.3-4.1c0.5-0.5,1-1.1,1.5-1.7
			c0.5-0.6,1-1.1,1.5-1.4c0.3-0.3,0.7-0.9,1-1.5c0.2-0.5,0.6-0.9,1.3-1c0-0.2,0-0.3,0.1-0.3C75.5,127.2,75.5,127.1,75.5,127z
			 M93.5,147.5c0-0.3,0.1-0.7,0.3-1.2c0.2-0.4,0.3-0.8,0.5-1.2l1-2.1l0.8-2.1l0.5-1.8l0.5-1.5c0.2-0.3,0.3-0.8,0.3-1.3l-0.8,1
			l-1,1.3c0.2,0.5,0.1,1.1-0.3,1.8c-0.2,0.3-0.3,0.7-0.5,1c-0.2,0.3-0.4,0.7-0.8,1l-1,2.1c0,0.9-0.3,1.5-1,2.1l-0.5,2.3l-0.5,2.1
			l-0.8,2.1c-0.2,0.3-0.3,0.7-0.5,1c-0.2,0.3-0.2,0.7,0,1l-0.8,1.3c-0.2,0.3-0.3,0.8-0.3,1.3c0,0.2-0.1,0.3-0.3,0.5v0.3l0.5-0.5
			c0.2-0.2,0.3-0.6,0.3-1.3l1-1.3l0.8-1.8l1.3-1.8l0.8-2.3L93.5,147.5z M101,135.4c-0.2-0.2-0.3-0.3-0.5-0.3v0.3l-0.3,1
			c-0.5,0.7-1,1.5-1.4,2.4c-0.4,0.9-0.8,1.9-1.2,3l-1,3.1c-0.2,0.5-0.3,1-0.5,1.4c-0.2,0.4-0.3,0.9-0.3,1.4c0,0.5-0.1,0.9-0.3,1
			c0,0.2,0,0.3,0.1,0.4c0.1,0.1,0,0.3-0.1,0.6v0.5c0.2,0,0.3-0.1,0.3-0.3v-0.3l0.3-0.8l0.5-1l1.3-2.3c0-0.5,0.1-1,0.4-1.5
			c0.3-0.5,0.4-1,0.4-1.5c0.2-0.5,0.4-1,0.6-1.5c0.3-0.5,0.4-1,0.4-1.5c0.3-0.5,0.6-1,0.6-1.5c0.1-0.5,0.2-0.9,0.4-1.3v-1L101,135.4
			z M99.7,136.5l0.5-0.8L100,136L99.7,136.5z"/>
		<path fill="#BC6C91" d="M142.9,180.5c2.2-5.5,4.9-11.9,8.1-19.3c3.2-7.4,6.6-15.6,10.2-24.7l0.8-2.1c1.2-3.3,1.5-5.8,1-7.7
			c-0.5-1.9-1.6-3.1-3.2-3.6c-1.6-0.5-3.5-0.3-5.7,0.6c-2.1,0.9-4.2,2.5-6.3,4.8c-0.9,1-2,2.4-3.3,4.2c-1.4,1.8-2.8,3.7-4.2,5.7
			c-1.5,2-2.9,3.8-4.2,5.5c-1.4,1.7-2.4,2.8-3.1,3.3c-4.5,8.7-7.8,15.8-10,21.1c-2.2,5.3-3.9,9.4-5,12.3c-1.1,2.9-1.9,4.9-2.4,6
			c-0.5,1.1-1.2,2-2.1,2.7c-0.5,0.5-1.6,0.9-3.3,1.2c-1.7,0.3-3.4,0.2-5-0.1c-1.6-0.3-2.9-1.2-3.7-2.4c-0.9-1.3-0.7-3.3,0.5-6
			c1.7-4.3,3.7-9.4,6-15.3c2.3-5.9,4.7-12,7.2-18.3c2.5-6.3,5-12.5,7.6-18.7c2.6-6.2,5-11.7,7.2-16.5c1.2-2.6,2.8-4.2,4.9-5
			c2.1-0.8,4-0.9,5.9-0.5c1.9,0.4,3.4,1.3,4.6,2.7c1.2,1.4,1.5,2.9,1,4.6c-0.3,0.9-0.8,2.1-1.3,3.6c-0.5,1.5-1.3,3.5-2.3,5.9
			c1.2-2.1,2.8-4.2,4.9-6.4c2.1-2.2,4.3-4.2,6.7-5.9c2.4-1.7,5-3,7.7-3.9c2.7-0.9,5.4-0.9,8-0.3c3.1,0.9,5.1,2.6,6.2,5.1
			c1,2.6,1.1,6.6,0.3,12.1c3.9-5.1,7.5-9,10.5-11.6c3.1-2.6,5.9-4.2,8.5-4.9c4.5-1,8.7-1.5,12.6-1.3c3.9,0.2,7.1,1.2,9.5,3
			c2.4,1.8,3.8,4.4,4.2,7.7c0.4,3.3-0.6,7.6-3,12.7c-1.9,3.8-3.6,7.5-5.3,11.3c-1.6,3.8-3.5,7.6-5.5,11.6c-1.4,3.3-2.4,6-3.2,8.1
			c-0.8,2.1-1.5,4.4-2.3,6.8c-0.8,2.4-1.3,4.4-1.5,6c-0.3,1.6-0.2,2.7,0.3,3.1c0.4,0.4,1.5-0.2,3.2-1.9c6-6.3,10.8-12.8,14.3-19.3
			c3.5-6.5,6.3-11.4,8.4-14.7c1.2-1.9,2.5-2.7,3.9-2.4c1.4,0.3,2.5,1.1,3.5,2.6c0.9,1.5,1.5,3.3,1.8,5.4c0.3,2.1,0,4.1-0.9,5.8
			c-2.2,4.6-4.7,9.3-7.5,14c-2.7,4.7-5.8,8.9-9.3,12.5c-3.4,3.6-7.4,6.4-11.8,8.4c-4.5,2-9.5,2.5-15.2,1.7c-1.9-0.2-3.3-0.9-4.2-2.1
			c-0.9-1.2-1.6-2.6-2.1-4.1c-0.4-1.5-0.6-3.1-0.6-4.8c0-1.6,0.2-3.1,0.5-4.5c0.3-2.1,1.1-4.7,2.2-7.8c1.1-3.2,2.4-6.6,4-10.2
			c1.5-3.6,3.1-7.2,4.8-10.8c1.6-3.6,3.1-6.9,4.5-9.8c3.3-7,4.3-11.7,3.1-13.9c-1.2-2.2-3.5-2.6-6.8-1c-3.3,1.5-7.2,4.6-11.6,9.3
			c-4.4,4.6-8.2,10.3-11.4,17c-5.5,11.1-9.3,19.7-11.3,25.7c-2.1,6-3.7,10.2-4.9,12.6c-1.5,2.9-3.2,4.5-5,4.6
			c-1.8,0.2-3.9,0.2-6.3,0c-1.9-0.2-3.2-1.1-4-2.8C141.5,185.7,141.7,183.4,142.9,180.5z M140.1,113.3l-0.3,0.3
			c-0.2,0-0.3,0.2-0.5,0.5l-1.3,1.3c-0.5,1.2-1.2,2.4-2.2,3.6c-0.9,1.2-1.8,2.7-2.7,4.6l-2.3,5.4c-0.3,0.5-0.6,1.2-0.8,1.9
			c-0.2,0.8-0.5,1.5-1,2.2v1.8c-0.3,0.7-0.5,1.2-0.5,1.5c-0.2,0.2-0.3,0.4-0.3,0.8c0.2,0,0.3-0.1,0.3-0.3v-0.3l0.8-1.5
			c0.3-0.2,0.6-0.5,0.6-0.9c0.1-0.4,0.2-0.7,0.4-0.9c0.2-0.3,0.4-0.9,0.6-1.7c0.3-0.8,0.6-1.6,1.2-2.4l2.3-4.4
			c0.5-1.7,1.3-3.3,2.3-4.9c0.5-0.7,0.9-1.3,1.3-1.8c0.3-0.5,0.7-1.2,1-2.1c-0.3-0.3-0.4-0.6-0.1-0.8c0.3-0.2,0.5-0.4,0.6-0.8
			c0.3,0,0.5-0.1,0.4-0.4c-0.1-0.3,0-0.4,0.1-0.4V113.3z M129.8,123.1c-0.3,0.5-0.4,1-0.3,1.5c0.2,0.5,0.3,0.9,0.3,1.3
			c0.2-1,0.7-2.1,1.5-3.1c0.2-0.7,0.4-1.2,0.8-1.7c0.3-0.4,0.6-0.9,0.8-1.4c0.2-0.3,0.3-0.8,0.3-1.3s0.2-0.9,0.5-1
			c0.3-0.9,0.8-1.5,1.3-1.8c-0.2,0-0.3-0.1-0.3-0.3c-0.9,0.5-1.3,1.2-1.3,2.1c-0.5,0.2-0.9,0.9-1.3,2.1c-0.3,0.3-0.6,0.8-0.9,1.3
			c-0.3,0.5-0.5,0.9-0.6,1.3C129.9,122.8,129.6,123.1,129.8,123.1z M136.5,132.9c0,0.2-0.1,0.3-0.3,0.5c0.3-0.3,0.6-0.8,0.9-1.3
			s0.6-0.9,0.9-1.3l-1.3,1.5c0,0.2,0,0.3-0.1,0.3C136.5,132.6,136.5,132.7,136.5,132.9z M201.3,149.9c-0.2-0.5-0.1-0.9,0.1-1.3
			c0.3-0.3,0.5-0.8,0.6-1.3l1.3-2.6l0.8-2.1l0.8-2.3l0.5-1.8c0.3-0.3,0.5-0.6,0.4-0.9c-0.1-0.3-0.1-0.5-0.1-0.6l-0.8,1.3l-1.3,1.3
			c0.3,0.7,0.4,1.1,0.3,1.3c-0.2,0.2-0.4,0.4-0.8,0.8c-0.2,0.5-0.4,0.9-0.6,1.3c-0.3,0.3-0.6,0.8-0.9,1.3l-1,2.3
			c0,1-0.4,1.8-1.3,2.3l-0.5,2.6l-1.5,5.1c-0.2,0.3-0.3,0.7-0.5,1c-0.2,0.3-0.2,0.8,0,1.3l-1,1.3c-0.3,0.5-0.5,1-0.5,1.5
			c0,0.3-0.1,0.6-0.3,0.8v0.3l0.8-0.5c0.2-0.3,0.3-0.9,0.3-1.5l1.3-1.5l1-2.1l1-1.8l1.3-2.8L201.3,149.9z M210.1,136.2
			c-0.2-0.2-0.3-0.3-0.5-0.3h-0.3l0.3,0.3l-0.5,1.3c-0.5,0.7-1,1.6-1.5,2.7c-0.5,1.1-1,2.2-1.5,3.2l-1.3,3.9
			c-0.2,0.7-0.3,1.2-0.5,1.7c-0.2,0.4-0.2,1,0,1.7c0,0.7-0.2,1-0.5,1c0,0.2,0,0.3,0.1,0.5c0.1,0.2,0,0.4-0.1,0.8l-0.3,0.5
			c0.2,0.2,0.3,0.2,0.3,0l0.3-0.3l0.3-1l1-1.3l1-2.3c0-0.7,0.2-1.3,0.6-1.9c0.4-0.6,0.6-1.2,0.4-1.9c0.2-0.7,0.4-1.3,0.6-1.9
			c0.3-0.6,0.5-1.1,0.6-1.4c0.3-0.7,0.6-1.3,0.8-1.9c0.2-0.6,0.3-1.2,0.5-1.7v-1.3L210.1,136.2z M208,136.5l0.5-0.8l-0.3,0.3
			L208,136.5z"/>
	</g>
</g>
</svg>
